<?xml version="1.0" encoding="UTF-8" standalone="no"?>
<svg
   width="120px"
   height="227px"
   viewBox="0 0 120 227"
   version="1.1"
   id="svg771"
   sodipodi:docname="closed_door.svg"
   inkscape:version="1.2.1 (9c6d41e410, 2022-07-14)"
   xmlns:inkscape="http://www.inkscape.org/namespaces/inkscape"
   xmlns:sodipodi="http://sodipodi.sourceforge.net/DTD/sodipodi-0.dtd"
   xmlns="http://www.w3.org/2000/svg"
   xmlns:svg="http://www.w3.org/2000/svg"
   xmlns:rdf="http://www.w3.org/1999/02/22-rdf-syntax-ns#"
   xmlns:cc="http://creativecommons.org/ns#"
   xmlns:dc="http://purl.org/dc/elements/1.1/">
  <sodipodi:namedview
     id="namedview773"
     pagecolor="#ffffff"
     bordercolor="#000000"
     borderopacity="0.25"
     inkscape:showpageshadow="2"
     inkscape:pageopacity="0.0"
     inkscape:pagecheckerboard="0"
     inkscape:deskcolor="#d1d1d1"
     showgrid="false"
     inkscape:zoom="1.2833832"
     inkscape:cx="46.751429"
     inkscape:cy="177.26583"
     inkscape:window-width="1920"
     inkscape:window-height="1011"
     inkscape:window-x="-9"
     inkscape:window-y="-9"
     inkscape:window-maximized="1"
     inkscape:current-layer="svg771" />
  <!-- Generator: Sketch 46.2 (44496) - http://www.bohemiancoding.com/sketch -->
  <title
     id="title757">Group 3</title>
  <desc
     id="desc759">Created with Sketch.</desc>
  <defs
     id="defs761" />
  <g
     id="1-panel_example_1-copy-2"
     transform="translate(-19,-305)"
     style="fill:#1a1a1a;fill-rule:evenodd;stroke:none;stroke-width:1">
    <g
       id="Group-3"
       transform="translate(19,305)"
       style="fill:#1a1a1a">
      <rect
         id="Rectangle-3"
         fill="#8439f6"
         x="0"
         y="0"
         width="120"
         height="227"
         style="fill:#1a1a1a" />
      <g
         id="noun_1258010_cc"
         transform="translate(10,10)"
         fill-rule="nonzero"
         fill="#010165"
         style="fill:#1a1a1a">
        <path
           d="M 101,208 V 0 H 0 V 208 H 1.6185897 Z M 3.2371795,3.2535586 H 97.762821 V 204.74644 H 3.2371795 Z"
           id="Shape"
           style="fill:#1a1a1a" />
        <path
           d="m 85.5,112 c -3.589395,0 -6.5,2.91061 -6.5,6.5 0,3.58939 2.910605,6.5 6.5,6.5 3.589395,0 6.5,-2.91061 6.5,-6.5 0,-3.58939 -2.910605,-6.5 -6.5,-6.5 z m 0,10.3588 c -2.131451,-0.003 -3.856156,-1.72735 -3.858797,-3.8588 0.0026,-2.13145 1.727346,-3.85616 3.858797,-3.8588 2.131451,0.003 3.856156,1.72735 3.858797,3.8588 -0.0026,2.12881 -1.727346,3.85616 -3.858797,3.8588 z"
           id="path765"
           style="fill:#1a1a1a" />
      </g>
    </g>
  </g>
  <rect
     style="fill:none;stroke:#ffffff;stroke-width:4.21749"
     id="rect950"
     width="99.216797"
     height="205.82967"
     x="11.273884"
     y="10.722913" />
  <circle
     style="fill:#1a1a1a;stroke:#ffffff;stroke-width:4.25953"
     id="path1160"
     cx="94.62925"
     cy="115.01517"
     r="4.8209953" />
  <metadata
     id="metadata1162">
    <rdf:RDF>
      <cc:Work
         rdf:about="">
        <dc:title>Group 3</dc:title>
      </cc:Work>
    </rdf:RDF>
  </metadata>
</svg>
