<?xml version="1.0" encoding="UTF-8" standalone="no"?>
<svg
   width="120px"
   height="227px"
   viewBox="0 0 120 227"
   version="1.1"
   id="svg885"
   sodipodi:docname="monkey-door.svg"
   xml:space="preserve"
   inkscape:version="1.2.1 (9c6d41e410, 2022-07-14)"
   xmlns:inkscape="http://www.inkscape.org/namespaces/inkscape"
   xmlns:sodipodi="http://sodipodi.sourceforge.net/DTD/sodipodi-0.dtd"
   xmlns:xlink="http://www.w3.org/1999/xlink"
   xmlns="http://www.w3.org/2000/svg"
   xmlns:svg="http://www.w3.org/2000/svg"><sodipodi:namedview
     id="namedview887"
     pagecolor="#ffffff"
     bordercolor="#000000"
     borderopacity="0.25"
     inkscape:showpageshadow="2"
     inkscape:pageopacity="0.0"
     inkscape:pagecheckerboard="0"
     inkscape:deskcolor="#d1d1d1"
     showgrid="false"
     inkscape:zoom="0.90748899"
     inkscape:cx="-99.174757"
     inkscape:cy="274.93447"
     inkscape:window-width="1920"
     inkscape:window-height="1011"
     inkscape:window-x="-9"
     inkscape:window-y="-9"
     inkscape:window-maximized="1"
     inkscape:current-layer="svg885" /><!-- Generator: Sketch 46.2 (44496) - http://www.bohemiancoding.com/sketch --><title
     id="title848">Group 14</title><desc
     id="desc850">Created with Sketch.</desc><defs
     id="defs854"><polygon
       id="path-1"
       points="28.2452367 115 0 115 0 0.548255814 28.2452367 0.548255814 56.4904734 0.548255814 56.4904734 115" /><polygon
       id="path-3"
       points="8.7732 0.316965957 8.7732 41.9130511 9e-05 41.9130511 9e-05 0.316965957 8.7732 0.316965957" /></defs><g
     id="g883"
     stroke="none"
     stroke-width="1"
     fill="none"
     fill-rule="evenodd"><g
       id="1-panel_example_1-copy-3"
       transform="translate(-19.000000, -305.000000)"><g
         id="Group-14"
         transform="translate(19.000000, 305.000000)"><g
           id="Group-3"><rect
             id="Rectangle-3"
             fill="#8439F6"
             x="0"
             y="0"
             width="120"
             height="227" /><g
             id="noun_1258010_cc"
             transform="translate(10.000000, 10.000000)"
             fill-rule="nonzero"
             fill="#010165"><path
               d="M101,208 L101,0 L0,0 L0,208 L1.61858974,208 L101,208 Z M3.23717949,3.25355858 L97.7628205,3.25355858 L97.7628205,204.746441 L3.23717949,204.746441 L3.23717949,3.25355858 Z"
               id="Shape" /></g></g><rect
           id="Rectangle-5"
           fill="#00FFFF"
           x="13"
           y="14"
           width="95"
           height="202" /><g
           id="Page-1"
           transform="translate(36.000000, 100.000000)"><path
             d="M26,8 C23.7937377,8 22,9.79470344 22,12 L23.751697,12 C23.751697,10.759466 24.7606744,9.75093018 26,9.75093018 C27.2393256,9.75093018 28.248303,10.7603414 28.248303,12 L30,12 C30,9.79470344 28.2053865,8 26,8"
             id="Fill-1"
             fill="#010165" /><path
             d="M39.0008755,8 C36.7942206,8 35,9.79422067 35,12 L36.7513134,12 C36.7513134,10.7600701 37.7600699,9.75131349 39.0008755,9.75131349 C40.2408054,9.75131349 41.2486863,10.7600701 41.2486863,12 L42.9999997,12 C43.0008753,9.79422067 41.2066547,8 39.0008755,8"
             id="Fill-3"
             fill="#010165" /><path
             d="M33,88.8729515 C33.6209803,88.8729515 34.1267562,89.3786484 34.1267562,89.9995318 C34.1267562,90.6213516 33.6209803,91.1270485 33,91.1270485 C32.378083,91.1270485 31.8732438,90.6213516 31.8732438,89.9995318 C31.8732438,89.3786484 32.3790197,88.8729515 33,88.8729515 M33,93 C34.6550109,93 36,91.6533479 36,89.9995318 C36,88.3466521 34.6540743,87 33,87 C31.3459257,87 30,88.3466521 30,89.9995318 C30,91.6533479 31.3459257,93 33,93"
             id="Fill-5"
             fill="#010165" /><g
             id="Group-9"><mask
               id="mask-2"
               fill="white"><use
                 xlink:href="#path-1"
                 id="use864" /></mask><g
               id="Clip-8" /><path
               d="M54.7092234,46.4394961 C54.7092234,47.6233721 53.7473484,48.5861628 52.5645984,48.5861628 L12.6075984,48.5861628 C11.4248484,48.5861628 10.4629734,47.6233721 10.4629734,46.4394961 L10.4629734,23.180969 C10.4629734,21.997093 11.4248484,21.0343023 12.6075984,21.0343023 L23.2568016,21.0343023 C23.5854422,22.9411628 25.2384422,24.3996124 27.2361141,24.3996124 L37.9351922,24.3996124 C39.9328641,24.3996124 41.5876453,22.9411628 41.9162859,21.0343023 L52.5654891,21.0343023 C53.7482391,21.0343023 54.7101141,21.997093 54.7101141,23.180969 L54.7101141,46.4394961 L54.7092234,46.4394961 Z M37.3545047,91.5310853 C37.3545047,93.1901163 36.0060984,94.5398062 34.3486453,94.5398062 L30.8244422,94.5398062 C29.1669891,94.5398062 27.8185828,93.1901163 27.8185828,91.5310853 L27.8185828,50.3691085 L37.3545047,50.3691085 L37.3545047,91.5310853 Z M52.1584734,100.522481 L13.0137234,100.522481 C13.2782391,92.4867442 18.5079891,85.3745736 26.0373328,82.6956977 L26.0373328,91.5310853 C26.0373328,94.1734109 28.1846297,96.3227519 30.8244422,96.3227519 L34.3486453,96.3227519 C36.9884578,96.3227519 39.1357547,94.1734109 39.1357547,91.5310853 L39.1357547,82.6965891 C46.6642078,85.3763566 51.8939578,92.4876357 52.1584734,100.522481 L52.1584734,100.522481 Z M20.6009578,102.305426 L44.5712391,102.305426 C43.9941141,108.419147 38.8418484,113.217946 32.5860984,113.217946 C26.3312391,113.217946 21.1780828,108.418256 20.6009578,102.305426 Z M40.2036141,17.4987209 L40.2036141,20.3460853 C40.2036141,21.5977132 39.1856297,22.6166667 37.9343016,22.6166667 L27.2361141,22.6166667 C25.9856766,22.6166667 24.9685828,21.5977132 24.9685828,20.3460853 L24.9685828,17.4987209 L40.2036141,17.4987209 Z M14.5847859,11.3609302 L14.5847859,10.1298062 C14.5847859,7.72817829 16.5370359,5.77317829 18.9372703,5.77317829 L46.2358172,5.77317829 C48.6342703,5.77317829 50.5865203,7.72728682 50.5865203,10.1298062 L50.5865203,11.3609302 C50.5865203,13.7625581 48.6351609,15.7166667 46.2358172,15.7166667 L18.9363797,15.7166667 C16.5370359,15.7157752 14.5847859,13.7616667 14.5847859,11.3609302 L14.5847859,11.3609302 Z M27.2361141,2.33120155 L37.9351922,2.33120155 C38.9736609,2.33120155 39.8411297,3.03635659 40.1100984,3.99023256 L25.0629891,3.99023256 C25.3310672,3.03635659 26.1985359,2.33120155 27.2361141,2.33120155 L27.2361141,2.33120155 Z M56.4904734,24.2043798 L56.4904734,23.1818605 C56.4904734,21.0146899 54.7288172,19.2522481 52.5645984,19.2522481 L41.9848641,19.2522481 L41.9848641,17.4996124 L46.2349266,17.4996124 C49.6157391,17.4996124 52.3668797,14.7458527 52.3668797,11.3609302 L52.3668797,10.1298062 C52.3668797,6.74488372 49.6157391,3.99023256 46.2349266,3.99023256 L41.9225203,3.99023256 C41.6250516,2.04593023 39.9578016,0.548255814 37.9334109,0.548255814 L27.2361141,0.548255814 C25.2126141,0.548255814 23.5462547,2.04682171 23.2487859,3.99023256 L18.9363797,3.99023256 C15.5546766,3.99023256 12.8026453,6.74399225 12.8026453,10.1298062 L12.8026453,11.3609302 C12.8026453,14.7458527 15.5537859,17.4996124 18.9363797,17.4996124 L23.1864422,17.4996124 L23.1864422,19.2522481 L12.6075984,19.2522481 C10.4424891,19.2522481 8.68172344,21.0155814 8.68172344,23.1818605 L8.68172344,24.1277132 L-8.90625e-05,24.1277132 L-8.90625e-05,57.2557364 L-8.90625e-05,58.1472093 L-8.90625e-05,65.6239922 L7.95497344,65.6239922 L7.95497344,63.8410465 L1.78116094,63.8410465 L1.78116094,59.0386822 L7.95497344,59.0386822 L7.95497344,57.2557364 L1.78116094,57.2557364 L1.78116094,25.9097674 L8.68172344,25.9097674 L8.68172344,46.4394961 C8.68172344,48.6066667 10.4433797,50.3691085 12.6075984,50.3691085 L26.0373328,50.3691085 L26.0373328,80.8200388 C17.2851609,83.6433333 11.2217859,91.9010465 11.2217859,101.161667 L11.2467234,102.304535 L18.8197078,102.304535 C19.4030672,109.400659 25.3479891,115 32.5860984,115 C39.8242078,115 45.7691297,109.400659 46.3524891,102.304535 L53.0517703,102.304535 L53.9263641,102.218953 L53.9486297,101.160775 C53.9486297,91.9010465 47.8861453,83.6442248 39.1339734,80.8200388 L39.1339734,50.3682171 L52.5628172,50.3682171 C54.7279266,50.3682171 56.4886922,48.6048837 56.4886922,46.4386047 L56.4886922,25.9873256 L56.4904734,24.2043798 Z"
               id="Fill-7"
               fill="#010165"
               mask="url(#mask-2)" /></g><g
             id="Group-12"
             transform="translate(56.000000, 24.000000)"><mask
               id="mask-4"
               fill="white"><use
                 xlink:href="#path-3"
                 id="use870" /></mask><g
               id="Clip-11" /><polyline
               id="Fill-10"
               fill="#010165"
               mask="url(#mask-4)"
               points="9e-05 2.10330638 6.97329 2.10330638 6.97329 33.5246681 0.73449 33.5246681 0.73449 35.3119021 6.97329 35.3119021 6.97329 40.125817 0.73449 40.125817 0.73449 41.9130511 8.77329 41.9130511 8.77329 34.4182851 8.77329 33.5246681 8.77329 0.316965957 9e-05 0.316965957" /></g><path
             d="M37,36 C37,38.7613965 34.761599,41 32.0004522,41 C29.238401,41 27,38.7613965 27,36 C27,33.2386035 29.238401,31 32.0004522,31 C34.761599,31 37,33.2386035 37,36 Z"
             id="Stroke-13"
             stroke="#010165"
             stroke-width="2" /><path
             d="M41,36 C41,40.9705769 36.9705769,45 32,45 C27.0294231,45 23,40.9705769 23,36 C23,31.0294231 27.0294231,27 32,27 C36.9705769,27 41,31.0294231 41,36 Z"
             id="Stroke-15"
             stroke="#010165"
             stroke-width="2" /></g><path
           d="M15.8075564,191.382972 L16.9998893,192.589236 L29.3643935,204.909623 L30.5567264,206.115888 L27.6821243,210.385415 L27.4046486,210.124773 L25.5755147,208.299123 C25.8529904,207.288484 26.2941652,206.408456 27.110919,205.674713 C27.2577838,205.544102 27.3071257,205.316549 27.2252762,205.137176 C27.1434267,204.957223 26.9315467,204.843447 26.73534,204.876535 C26.6372366,204.892208 26.5553871,204.925296 26.4903719,204.990312 C25.6573642,205.724055 25.167428,206.620917 24.8406103,207.565379 L22.619063,205.332803 C22.8802849,204.72967 23.0602378,204.224641 23.6970388,203.751539 C23.8601574,203.637763 23.9257531,203.393375 23.8601574,203.213422 C23.7783079,203.017796 23.5821012,202.887185 23.3702212,202.920273 C23.2883716,202.920273 23.2071026,202.969034 23.1252531,203.017796 C22.455364,203.523405 22.1453806,204.110284 21.9004125,204.630986 L19.9406676,202.642797 L22.3253335,200.263356 C22.4721983,200.116491 22.5215402,199.872103 22.4234368,199.693312 C22.3253335,199.51452 22.0966192,199.415836 21.900993,199.464597 C21.8191435,199.480851 21.7378744,199.529612 21.6722787,199.595208 L19.271359,201.990903 L17.278526,200.019549 C17.8178042,199.775161 18.3895899,199.465178 18.9120337,198.797611 C19.1407481,198.520135 18.8632723,198.015106 18.5033666,198.047613 C18.3727556,198.063867 18.2583985,198.129463 18.1765489,198.226986 C17.6866127,198.863206 17.1804227,199.041998 16.5761293,199.30322 L14.354582,197.103151 C15.3019468,196.776914 16.1837159,196.271885 16.9186203,195.440619 C17.1635884,195.180558 16.9511279,194.674948 16.5918026,194.674948 C16.4611917,194.674948 16.3305807,194.72429 16.2487312,194.821813 C15.5138268,195.653079 14.6314772,196.092513 13.6190972,196.369988 L11.773129,194.528664 L11.511907,194.268023 L15.8075564,191.382972 Z M18.1597146,188.759143 C18.2415642,188.742889 18.3721751,188.759143 18.4209365,188.824158 L18.5027861,188.889173 L18.5190399,188.905427 L19.0745718,189.459798 L32.4839637,202.839584 L33.0557494,203.409629 C33.0720032,203.409629 33.0720032,203.425883 33.088257,203.442717 L33.137599,203.491478 L33.137599,203.507732 C33.2194485,203.573328 33.2357023,203.768373 33.1863604,203.833969 L31.7658936,205.969023 C31.7496398,205.969023 31.7658936,205.969023 31.7658936,205.985277 C31.7496398,205.985277 31.7328055,205.985277 31.7165517,205.969023 L31.521506,205.757143 C31.5052522,205.740889 31.4884179,205.724635 31.4721641,205.708382 L30.0186092,204.257729 L17.6541051,191.937343 L16.2818193,190.56854 C16.2818193,190.56854 16.2655655,190.552286 16.2655655,190.536032 C16.216804,190.471017 16.1674621,190.421675 16.1018664,190.389167 L15.9550016,190.226049 L15.922494,190.193541 C15.922494,190.209795 15.9062402,190.209795 15.9387478,190.177287 L18.0946994,188.775396 C18.1103727,188.759143 18.127207,188.759143 18.1597146,188.759143 L18.1597146,188.759143 Z M32.8427084,186.640923 C32.8589622,186.624669 32.9901537,186.640923 33.0226613,186.673431 C33.0557494,186.705938 33.0876765,186.738446 33.1207647,186.7547 L33.5944471,187.243475 L34.7211843,188.351636 L35.1130172,188.742889 C35.1461053,188.840412 35.2111205,188.938515 35.3092238,188.987276 L35.3092238,189.117887 L34.7699457,189.9329 L32.0097008,187.195294 L32.8427084,186.640923 Z M26.7022519,184.21272 L27.0453233,184.21272 C27.5190057,184.261482 27.9601805,184.457108 28.2701639,184.767091 L30.4917112,186.983414 L30.9491398,187.423428 L30.9653936,187.439682 L32.7451856,189.215991 L34.5093043,190.9923 C34.5255581,191.008553 34.5586462,191.024807 34.5743195,191.041061 L34.9829867,191.448567 L37.2039535,193.66489 C37.8245007,194.283696 37.9394383,195.473707 37.4489216,196.20745 L33.3169713,202.35139 L33.1370185,202.188271 L33.1207647,202.188271 L19.7276266,188.824738 L19.5645081,188.645366 L25.7386332,184.522123 C26.016109,184.343331 26.3591804,184.245228 26.7022519,184.21272 L26.7022519,184.21272 Z M56.452526,158.903219 C56.5506293,158.903219 56.6324788,158.935726 56.6974941,159.000741 L57.7754699,160.060142 C57.9060808,160.190752 57.9060808,160.402052 57.7754699,160.548917 L35.5704458,187.928457 L35.3742391,187.716577 L34.2306676,186.591581 L34.0350414,186.379701 L56.2069774,159.000161 C56.2894074,158.935726 56.3706764,158.903219 56.452526,158.903219 L56.452526,158.903219 Z M56.452526,157.990683 C56.1257083,157.990683 55.8151445,158.121294 55.5701764,158.365682 L33.3169713,185.793403 C33.218868,185.744642 33.1207647,185.728388 33.0226613,185.712134 C32.793947,185.69588 32.5495594,185.744642 32.3365184,185.891506 L31.356646,186.527146 L31.1610198,186.315266 L28.9394725,184.115197 C28.4495363,183.642676 27.7964815,183.349527 27.1265924,183.283931 C26.4735376,183.218916 25.7873947,183.3652 25.2156089,183.740199 L18.8621113,187.993472 C18.7152466,187.895949 18.5352937,187.830353 18.3559213,187.8141 C18.0778651,187.781592 17.8166432,187.846607 17.5716751,187.993472 L15.4319773,189.427871 C15.203263,189.574155 15.0233101,189.851631 15.0076368,190.128526 C14.991383,190.324152 15.0563982,190.536032 15.1707554,190.715404 L10.5320346,193.828009 C10.3195741,193.974873 10.2870665,194.333618 10.4670194,194.529244 L11.1369085,195.181138 L13.1297415,197.169327 C13.1459953,197.185581 13.1459953,197.185581 13.1622491,197.201835 L26.7678476,210.760994 L27.4209024,211.428561 C27.6171091,211.608514 27.9764343,211.575426 28.1232991,211.363546 L31.2434498,206.752108 C31.4065684,206.865885 31.6352827,206.914646 31.8309089,206.898393 C32.1089651,206.882719 32.370187,206.71902 32.5333056,206.491467 L33.9543528,204.340159 C34.2155747,203.932653 34.1993209,203.443878 33.9543528,203.052625 L38.2174945,196.71306 C38.9686527,195.57181 38.8217879,193.974873 37.8581693,193.013577 L35.636622,190.797254 L35.424742,190.602208 L36.0777968,189.624077 C36.2902573,189.314094 36.3070916,188.95593 36.1596463,188.629693 L58.4134318,161.201391 C58.9039486,160.712616 58.9039486,159.897603 58.4134318,159.408828 L57.3522904,158.349428 C57.1061613,158.10446 56.7793436,157.990683 56.452526,157.990683 L56.452526,157.990683 Z"
           id="path879"
           stroke="#010165"
           stroke-width="0.5"
           fill="#010165"
           transform="translate(34.565713, 184.767984) rotate(-21.000000) translate(-34.565713, -184.767984) " /></g></g></g><rect
     style="fill:#000000;stroke:none;stroke-width:2.86;stroke-dasharray:none"
     id="rect3125"
     width="121.76456"
     height="228.10194"
     x="-2.2038834"
     y="-1.1019417" /><rect
     style="fill:#ffff00;stroke-width:2.86;stroke:#ffffff;stroke-dasharray:none"
     id="rect1650"
     width="99.736382"
     height="206.87508"
     x="9.7398815"
     y="10.908667" /><path
     style="fill:#000000;stroke-width:0.40387"
     d="m 70.487419,203.09463 -1.322938,-1.40273 -0.273348,-1.61793 -0.273347,-1.61793 0.458615,-1.38961 0.458611,-1.38962 0.585147,-0.48562 0.585148,-0.48563 v -0.31083 -0.31083 l -4.543542,-0.17117 -4.543543,-0.17117 -5.001822,-1.90172 -5.001823,-1.90172 -0.753331,0.2391 -0.753331,0.2391 v 0.31768 0.31768 l -0.908708,0.98876 -0.908709,0.98876 -1.031967,1.39247 -1.031967,1.39247 -1.04875,1.82176 -1.04875,1.82175 -1.699949,0.95543 -1.699949,0.95542 -2.681261,-0.20902 -2.68126,-0.20901 -2.904536,-1.20193 -2.904536,-1.20192 -3.961262,-2.42686 -3.961261,-2.42686 -2.464008,-1.23707 -2.464008,-1.23707 -1.271793,-1.07015 -1.271794,-1.07014 v -0.98645 -0.98645 l 0.563744,-0.21633 0.563744,-0.21633 -0.212533,-1.58455 -0.212532,-1.58454 0.505981,-0.60967 0.505981,-0.60967 h 0.785505 0.785505 l -0.262643,-0.82752 -0.262643,-0.82751 0.648608,-0.9899 0.648608,-0.98991 h 1.216511 1.21651 l -0.427854,-0.79945 -0.427855,-0.79945 0.261313,-1.04116 0.261313,-1.04115 0.958291,-0.6279 0.95829,-0.6279 1.406101,0.26379 1.406101,0.26379 1.791186,1.36724 1.791186,1.36725 3.955429,2.64507 3.955428,2.64507 0.271168,-0.43876 0.271168,-0.43876 -0.18891,-0.72239 -0.188911,-0.7224 2.661635,-2.71455 2.661635,-2.71455 v -0.51385 -0.51383 l -0.605806,-0.23247 -0.605806,-0.23247 v 0.59313 0.59313 l -0.706773,-0.006 -0.706773,-0.006 -0.595146,-0.37637 -0.595147,-0.37636 -0.262976,0.4255 -0.262976,0.42551 -1.415109,-0.67152 -1.415108,-0.67151 -0.899758,-0.95775 -0.899758,-0.95774 -0.495394,0.1901 -0.495393,0.19009 -1.634143,-1.77283 -1.634143,-1.77284 -0.636316,-0.24417 -0.636317,-0.24418 -0.834196,-1.63516 -0.834196,-1.63517 h -0.329609 -0.329609 l -3.510839,-6.03359 -3.51084,-6.03359 -0.79997,-1.80847 -0.799969,-1.80846 -0.400053,-2.10947 -0.400053,-2.10948 0.401952,-1.49273 0.401952,-1.49274 1.562229,-2.3883 1.562229,-2.3883 1.618235,-1.61548 1.618236,-1.61548 1.707972,-1.5168 1.707973,-1.5168 0.926403,-0.23252 0.926403,-0.23251 1.221471,0.63165 1.22147,0.63165 0.492154,1.49123 0.492153,1.49124 -0.287815,3.86707 -0.287816,3.86707 -0.09555,1.14921 -0.09555,1.14922 0.850155,0.32322 0.850155,0.32323 0.538523,0.64888 0.538524,0.64888 -0.235079,1.17539 -0.235078,1.1754 0.961905,0.63026 0.961904,0.63026 0.254941,0.80325 0.25494,0.80324 -0.410629,0.76727 -0.410628,0.76727 0.910101,0.85499 0.9101,0.855 2.566503,1.78609 2.566502,1.78608 2.65378,-2.08051 2.653781,-2.08052 2.543419,-2.37436 2.543419,-2.37437 -0.424924,-0.512 -0.424924,-0.512 -0.75335,0.197 -0.75335,0.19701 -0.998611,-1.46959 -0.99861,-1.46958 -0.260963,0.68005 -0.260962,0.68006 -0.78913,-0.71415 -0.78913,-0.71416 -0.817932,-1.68962 -0.817931,-1.68962 -0.02733,-1.18506 -0.02734,-1.18507 -0.438253,0.90871 -0.438254,0.9087 h -0.295049 -0.295049 l -0.243525,-0.9087 -0.243524,-0.90871 -0.0055,-2.09311 -0.0055,-2.0931 -0.877968,-0.27866 -0.877969,-0.27865 -1.896814,-1.77425 -1.896814,-1.77425 -1.053945,-2.3485 -1.053945,-2.3485 -0.372104,-2.62753 -0.372103,-2.62752 0.357306,-1.91257 0.357307,-1.91257 0.846337,-1.18857 0.846336,-1.18857 1.159715,-0.59971 1.159714,-0.59971 h 0.961285 0.961286 l 1.837675,0.93034 1.837675,0.93035 0.604746,-1.33422 0.604747,-1.33422 h -0.354623 -0.354622 v -0.38085 -0.38085 l 2.224829,-2.40308 2.224829,-2.40308 3.151911,-1.6398 3.151909,-1.6398 3.352165,-0.96778 3.352165,-0.96777 -0.651495,-0.25 -0.651496,-0.25001 v -0.38522 -0.38523 l 1.430202,-0.47201 1.430203,-0.47201 0.568581,0.21819 0.56858,0.21819 -0.224576,-0.58524 -0.224576,-0.585244 h 1.846572 1.846577 l 1.326629,1.142604 1.326634,1.1426 5.452251,2.64824 5.45225,2.64824 2.653853,2.4387 2.653849,2.43871 0.980395,1.84806 0.980388,1.84806 0.20253,-0.12178 0.20252,-0.12178 1.98101,-0.93469 1.98101,-0.9347 h 1.88667 1.88667 l 1.1807,0.61635 1.1807,0.61635 1.08922,1.1467 1.08922,1.1467 0.62723,1.50155 0.62723,1.50154 v 2.40021 2.40021 l -0.77565,2.49215 -0.77564,2.49215 -1.12105,1.61768 -1.12106,1.61769 -1.80232,1.24003 -1.80232,1.24003 -2.25807,0.69829 -2.25806,0.6983 -0.22515,1.37217 -0.22514,1.37218 -0.33559,0.54299 -0.33558,0.54298 -0.41771,-0.7464 -0.4177,-0.74641 -0.44763,1.80519 -0.44763,1.80518 -0.526263,-0.11228 -0.526267,-0.11228 -0.822422,1.04554 -0.822421,1.04554 -0.557184,-0.21381 -0.55718,-0.21381 v 0.25901 0.25901 l 3.037074,2.79847 3.037073,2.79848 1.85873,2.48305 1.85872,2.48306 1.44275,1.27752 1.44275,1.27751 -0.47451,0.57174 -0.4745,0.57175 1.80949,1.3558 1.8095,1.3558 v 0.32881 0.32881 h -0.40961 -0.4096 l 1.03161,1.55887 1.03162,1.55887 0.23857,1.47016 0.23857,1.47015 h -0.4067 -0.4067 l -0.1784,2.12032 -0.17838,2.12032 -0.58512,1.21161 -0.5851,1.21162 -0.61895,0.007 -0.61894,0.007 -2.0536,1.50749 -2.05361,1.50748 h -0.45073 -0.45073 v -0.41424 -0.41424 l -1.11064,0.57384 -1.11064,0.57384 -1.63202,0.43904 -1.632009,0.43903 0.09706,1.92556 0.09706,1.92555 0.02044,0.44694 0.02044,0.44693 3.260239,-1.15371 3.26023,-1.1537 h 1.74341 1.7434 l 0.83525,0.70677 0.83527,0.70677 0.23716,1.00968 0.23717,1.00968 -0.56237,0.76822 -0.56236,0.76822 0.74629,0.7463 0.74629,0.74628 v 0.99376 0.99375 l -0.54579,0.50984 -0.54579,0.50985 0.94966,0.747 0.94966,0.747 v 0.89959 0.89959 l -0.42139,0.42139 -0.42139,0.42139 0.69264,1.20685 0.69264,1.20685 -0.24955,0.65029 -0.24954,0.65029 -0.98773,0.64719 -0.98772,0.64718 -4.38526,0.37049 -4.38526,0.37049 -6.409134,1.63102 -6.409129,1.63101 H 74.44065 71.810383 Z m 13.62551,-1.368 6.311611,-1.6057 3.77101,-0.28957 3.77102,-0.28958 0.9087,-0.33931 0.9087,-0.33931 v -1.01198 -1.01198 l -0.9087,-0.22643 -0.9087,-0.22643 -1.36961,0.11777 -1.3696,0.11777 -0.16048,-0.45056 -0.16047,-0.45056 1.8746,-0.21129 1.8746,-0.2113 0.60361,-0.60361 0.60361,-0.6036 -0.48498,-0.90618 -0.48497,-0.90618 -2.00611,0.23759 -2.00611,0.2376 0.15688,-0.47062 0.15687,-0.47063 1.21699,-0.31535 1.21699,-0.31535 0.71032,-0.78491 0.71033,-0.7849 -0.25732,-0.81072 -0.25731,-0.81073 -0.68779,-0.14727 -0.6878,-0.14727 -1.58061,0.34013 -1.58061,0.34014 -0.64068,-0.15023 -0.64068,-0.15022 1.00968,-0.42833 1.00968,-0.42834 1.71645,-0.71128 1.71644,-0.71127 v -1.13607 -1.13606 l -0.86826,-0.46468 -0.86826,-0.46468 -1.72066,0.23584 -1.72066,0.23584 -5.237378,1.95295 -5.237388,1.95295 -2.298059,1.39168 -2.298059,1.39167 -3.399357,2.7347 -3.399358,2.7347 -0.611742,1.18298 -0.611743,1.18298 0.0143,1.53457 0.0143,1.53457 0.534983,0.96522 0.534979,0.96523 0.965222,0.56236 0.965222,0.56236 2.437366,-0.1917 2.437362,-0.1917 6.311607,-1.60572 z m -42.757367,-1.81887 1.318465,-0.55089 1.057079,-1.25627 1.05708,-1.25627 0.47388,-1.43587 0.47388,-1.43587 -0.452496,-1.29803 -0.452495,-1.29803 -1.069143,-1.54277 -1.069144,-1.54278 -3.057206,-2.46267 -3.057206,-2.46268 -4.442575,-2.95784 -4.442575,-2.95784 -1.600771,-1.23658 -1.600771,-1.23657 -1.630193,0.11997 -1.630191,0.11998 -0.125862,1.30326 -0.125862,1.30327 1.863204,1.99191 1.863204,1.99192 -0.390567,0.24139 -0.390567,0.24138 -1.14484,-0.95237 -1.14484,-0.95238 -0.923964,-0.48625 -0.923963,-0.48624 -0.792486,0.25152 -0.792486,0.25153 v 0.96191 0.9619 l 1.514514,1.11486 1.514515,1.11486 0.141409,0.0904 0.141409,0.0904 -0.270731,0.43805 -0.270731,0.43806 -1.149268,-0.81836 -1.149268,-0.81835 -1.239381,-0.24788 -1.23938,-0.24787 -0.251712,0.65595 -0.251711,0.65595 0.259989,1.03587 0.259989,1.03588 1.227353,0.67967 1.227353,0.67967 0.636749,0.44319 0.636749,0.44319 -0.405319,0.2505 -0.405318,0.2505 -1.558676,-0.79466 -1.558676,-0.79466 h -0.520411 -0.52041 v 0.42316 0.42315 l 1.005577,0.93194 1.005578,0.93194 2.528289,1.32697 2.528288,1.32699 4.422164,2.64255 4.422164,2.64255 3.251374,1.1319 3.251375,1.1319 1.32555,0.005 1.325551,0.005 1.318464,-0.55089 z m 6.293611,-8.22463 0.473524,-1.11931 1.413079,-0.70677 1.413079,-0.70677 h 0.756722 0.756723 l 4.718638,1.84502 4.718637,1.84502 0.188769,-0.18877 0.188773,-0.18878 -0.441431,-1.63934 -0.44143,-1.63935 -0.558339,0.21426 -0.558338,0.21425 -1.256025,-0.64952 -1.256025,-0.64951 -1.254692,-1.70197 -1.254689,-1.70195 -1.142384,-2.42323 -1.142384,-2.42322 -0.983078,-3.4329 -0.983078,-3.4329 h -1.963169 -1.963168 l 0.105631,2.01936 0.105631,2.01935 0.449283,1.41354 0.449284,1.41355 1.392994,2.32272 1.392994,2.32272 -0.133945,0.70631 -0.133945,0.70631 -1.131757,0.13016 -1.131758,0.13016 -1.414064,-1.07855 -1.414065,-1.07856 -0.363029,-0.95484 -0.363029,-0.95484 -0.998275,-1.52967 -0.998275,-1.52966 -0.27404,-1.51451 -0.274039,-1.51452 h -0.279697 -0.279698 l -1.297939,1.33913 -1.297939,1.33914 0.269033,0.26903 0.269034,0.26903 -1.156995,1.66955 -1.156994,1.66954 1.601836,1.24072 1.601836,1.24072 2.256777,2.26518 2.256776,2.26519 0.740618,1.67865 0.740619,1.67865 0.281949,-0.17426 0.281949,-0.17425 z m 23.207319,-0.72674 0.262399,-2.2326 -0.234471,-0.93421 -0.234475,-0.93422 0.633486,-2.44471 0.633487,-2.4447 v -0.6299 -0.62989 l -2.120319,0.98147 -2.12032,0.98146 -0.272415,1.52414 -0.27241,1.52415 -0.650607,1.53579 -0.650603,1.53579 0.253214,1.34974 0.253211,1.34975 -0.455049,0.85026 -0.455049,0.85027 h 2.583761 2.583765 z m 5.503001,-1.06469 3.432899,-2.57699 3.134139,-1.40447 3.13414,-1.40447 -0.156855,-2.36195 -0.15686,-2.36195 -0.793964,-1.07095 -0.793965,-1.07095 -1.577514,-0.90207 -1.57751,-0.90206 -0.962007,-0.007 -0.962003,-0.007 -1.30781,0.80827 -1.307805,0.80827 -0.479673,2.43813 -0.479672,2.43812 -0.580601,1.6456 -0.580604,1.6456 -1.213453,1.38205 -1.213457,1.38205 v 2.45862 2.45862 l 0.504838,-0.40959 0.504838,-0.40961 z m -12.580564,-1.7511 0.05809,-4.64451 h -1.210367 -1.210368 v 0.15116 0.15116 l 0.623891,1.76722 0.623891,1.76723 -0.214055,0.85427 -0.214052,0.85428 0.637805,1.87185 0.6378,1.87185 h 0.104639 0.104635 z m 2.008654,-1.94468 0.475149,-1.13693 v -1.013 -1.013 l -0.706773,0.13537 -0.706773,0.13537 -0.04674,4.43779 -0.04674,4.43778 0.278368,-2.42322 0.278363,-2.42322 z m -5.378884,1.43984 -0.286267,-0.70677 -0.971551,-2.54137 -0.971547,-2.54137 -0.648385,-3.71862 -0.648382,-3.71863 0.230646,-3.07528 0.230647,-3.07529 0.56827,-1.56922 0.568266,-1.56923 0.3239,-0.77024 0.323904,-0.77025 -2.286097,0.23594 -2.286096,0.23595 -1.191282,0.84827 -1.191283,0.84826 -0.271249,1.80883 -0.27125,1.80882 0.279958,2.24071 0.279958,2.24071 0.795214,2.86962 0.795214,2.86963 1.42174,2.91566 1.421741,2.91567 1.339586,1.46249 1.339586,1.46248 h 0.695513 0.695514 z m -0.272366,-4.5848 -1.295172,-3.79551 -0.025,-6.15818 -0.025,-6.15819 -0.344578,1.31174 -0.344579,1.31174 0.177958,4.84644 0.177953,4.84645 1.332332,3.94999 1.332328,3.94998 0.154481,-0.15448 0.15448,-0.15448 -1.295172,-3.7955 z m -11.829237,1.19894 -1.064882,-1.26554 -0.792252,-1.55294 -0.792251,-1.55294 -0.637484,-2.73474 -0.637484,-2.73474 0.257621,-1.96574 0.257621,-1.96574 0.813747,-1.73117 0.813747,-1.73118 0.736694,-0.6667 0.736694,-0.66669 1.963232,-0.76685 1.963233,-0.76684 -2.18955,-0.0189 -2.18955,-0.0189 -1.728565,1.80403 -1.728565,1.80403 -0.625427,2.10604 -0.625428,2.10604 v 1.15955 1.15955 l 0.615604,2.7066 0.615604,2.70661 1.219525,2.13531 1.219524,2.13531 1.294868,0.78952 1.294867,0.78952 0.136869,0.002 0.136869,0.002 -1.064881,-1.26554 z M 73.5324,184.90964 V 184.7077 H 73.330465 73.12853 v 0.20194 0.20193 h 0.201935 0.201935 z m -24.149727,-1.11221 -0.420274,-0.5064 -1.037859,-1.81586 -1.037859,-1.81585 -0.0049,0.42577 -0.0049,0.42577 1.202717,1.89648 1.202716,1.89649 h 0.260282 0.260282 l -0.420275,-0.5064 z m 25.588237,-3.93952 0.692088,-3.4156 -0.257188,-4.04568 -0.257193,-4.04568 -0.570132,-2.12226 -0.570128,-2.12226 -0.764652,-1.30927 -0.764651,-1.30926 -1.350471,-0.91008 -1.35047,-0.91009 h -1.393748 -1.393753 l -1.380134,0.65492 -1.380131,0.65492 -0.261671,0.42339 -0.261672,0.42339 0.715307,-0.27449 0.715307,-0.27449 1.608838,0.43322 1.608838,0.43321 1.771953,1.63333 1.771954,1.63333 1.035212,2.18826 1.035213,2.18827 0.469427,3.22071 0.469422,3.22072 -0.476389,3.13 -0.476389,3.12999 -0.239435,1.00968 -0.239439,1.00968 0.400999,-0.61613 0.400999,-0.61613 z m -2.246251,3.84011 v -0.20193 h -0.201935 -0.201935 v 0.20193 0.20194 h 0.201935 0.201935 z m -7.1687,-1.37806 1.918385,-0.53524 v -0.56556 -0.56555 l 0.908708,0.21845 0.908709,0.21845 1.32614,-0.81887 1.326141,-0.81888 0.231931,-0.6044 0.231927,-0.60439 -0.256632,-1.02251 -0.256635,-1.02251 -0.982573,-0.44769 -0.982572,-0.44769 0.79178,-1.00659 0.79178,-1.00658 v -0.99029 -0.9903 l -1.242087,-0.46883 -1.242084,-0.46884 0.230925,-1.15462 0.230925,-1.15463 -0.667937,-1.40757 -0.667941,-1.40757 -0.525532,-0.20167 -0.525533,-0.20167 -1.430202,0.47201 -1.430202,0.47201 v 0.6017 0.60171 l -0.802914,-0.25484 -0.802915,-0.25484 -1.317405,0.73246 -1.317405,0.73246 -0.29672,0.40387 -0.296715,0.40387 -0.0062,1.84844 -0.0062,1.84843 1.246894,-0.183 1.246897,-0.18301 -0.526243,0.84265 -0.526243,0.84265 -0.226475,-0.36644 -0.226474,-0.36645 -0.546324,0.33765 -0.546323,0.33765 0.283141,2.26619 0.283142,2.26619 0.475779,-0.006 0.475776,-0.006 0.602429,-0.38087 0.602429,-0.38087 -0.501461,-0.50146 -0.501474,-0.50148 v -0.39349 -0.3935 l 0.957003,0.89906 0.956999,0.89905 1.08644,-0.27268 1.08644,-0.27268 -0.208385,-0.54304 -0.208385,-0.54304 0.340471,-0.21042 0.34047,-0.21043 0.480913,0.57947 0.480917,0.57947 0.964095,-0.36655 0.964095,-0.36655 0.256672,0.41531 0.256676,0.41531 -0.200897,0.2009 -0.200897,0.2009 -1.354061,0.0179 -1.354056,0.0179 -2.095308,0.96599 -2.095312,0.96599 h -0.630814 -0.630817 v 0.54554 0.54554 l 0.435009,1.24787 0.435009,1.24787 0.87757,0.17497 0.87757,0.17497 0.40387,-0.0675 0.403871,-0.0675 z m -1.88038,-10.11224 -0.769737,-0.27668 1.726954,-0.90014 1.726954,-0.90014 0.19387,0.19387 0.193866,0.19387 -0.266211,0.43074 -0.266211,0.43074 h -0.561905 -0.561901 l -0.322971,0.55221 -0.322972,0.55221 z m 9.324968,9.19329 -0.212121,-0.53008 -0.03187,0.77409 -0.03186,0.77408 0.244006,-0.244 0.244002,-0.24401 -0.21212,-0.53008 z m 0.52676,-7.75375 -0.3899,-3.18497 -1.03695,-2.26728 -1.036945,-2.26728 -1.087813,-1.14671 -1.087809,-1.14669 -1.090587,-0.56976 -1.090588,-0.56974 h -1.371007 -1.371006 l -0.704722,0.7787 -0.704718,0.77871 0.392094,0.70063 0.39209,0.70063 0.257794,-0.81224 0.257795,-0.81224 1.047066,-0.47708 1.047066,-0.47707 1.758581,1.03059 1.758578,1.0306 1.024037,1.34258 1.024038,1.34258 0.807066,3.1556 0.807063,3.15559 0.0475,3.46926 0.0475,3.46926 0.346836,-2.01935 0.346836,-2.01935 z m -26.784979,5.13701 -0.269247,-0.26925 v 0.53849 0.5385 l 0.269247,-0.26925 0.269247,-0.26925 z m 43.552242,-1.34683 1.11362,-0.42339 1.20063,-0.85492 1.20062,-0.85492 0.34449,0.5574 0.3445,0.55741 1.42817,-1.38424 1.42817,-1.38424 0.24142,-0.76062 0.2414,-0.76062 0.55447,0.21277 0.55446,0.21277 0.25984,-1.38503 0.25983,-1.38503 -0.44691,-1.28202 -0.44692,-1.28202 v -0.38681 -0.38682 l 0.60581,0.23247 0.6058,0.23247 v -0.20931 -0.20932 l -0.65304,-1.29252 -0.65305,-1.29253 -0.77894,-0.8534 -0.77893,-0.85339 0.11941,-0.37916 0.1194,-0.37916 -1.53044,-1.34746 -1.53045,-1.34745 0.10389,-0.65095 0.10388,-0.65095 -2.00634,-2.60561 -2.00634,-2.60561 -1.36602,-1.5412 -1.366023,-1.5412 -1.963198,-1.64368 -1.963198,-1.64369 -0.507548,-0.077 -0.507548,-0.077 -0.459076,-0.2871 -0.459079,-0.2871 -0.499083,0.60136 -0.499083,0.60136 h -0.354417 -0.35442 v -0.36116 -0.36116 l 1.171713,-1.25432 1.171713,-1.25432 h 0.241833 0.241834 l 0.002,0.70677 0.002,0.70677 0.993145,-1.21161 0.993146,-1.21161 0.01454,0.50484 0.01454,0.50484 h 0.379125 0.379121 l 0.27254,-1.81742 0.27254,-1.81742 h 0.212521 0.21252 l 0.536518,0.70678 0.536517,0.70677 0.01902,-1.41355 0.01902,-1.41354 0.405357,-0.60581 0.40536,-0.60581 0.59813,0.78397 0.59813,0.78396 -0.007,-1.18783 -0.007,-1.18784 -0.7501,-3.56599 -0.75011,-3.566 0.51928,-0.19926 0.51927,-0.19927 -0.97222,-2.12361 -0.972218,-2.12361 -0.258449,-1.88558 -0.258445,-1.88558 0.695255,-1.8205 0.695257,-1.8205 -0.912139,-1.88422 -0.912133,-1.88422 -2.278694,-2.25242 -2.278714,-2.25243 -2.25392,-1.33638 -2.25392,-1.33638 -3.172059,-1.37363 -3.172059,-1.37363 -1.772147,-1.42966 -1.772151,-1.42966 H 66.81284 66.262732 v 0.3231 0.32309 l 0.477912,0.47792 0.477916,0.47791 -0.274272,0.27427 -0.274272,0.27427 -1.030387,-0.46947 -1.030387,-0.46948 h -1.242059 -1.242059 l 0.516979,0.62292 0.516982,0.62293 -0.366561,0.3229 -0.366561,0.32291 -2.827093,0.7149 -2.827093,0.7149 -3.234737,1.53473 -3.234738,1.53473 -1.943183,1.71046 -1.943182,1.71046 0.461194,0.28503 0.461195,0.28504 -1.196502,1.88669 -1.196502,1.88668 -0.500171,2.65081 -0.500172,2.65081 0.207868,2.5896 0.207868,2.5896 h -0.314153 -0.314154 l -0.290077,0.70677 -0.290077,0.70677 -0.117429,5.85613 -0.11743,5.85612 0.397953,-1.11065 0.397952,-1.11064 h 0.323111 0.32311 l 0.243525,0.90871 0.243524,0.90871 0.01439,1.21161 0.01439,1.21161 0.881016,1.81742 0.881015,1.81741 0.14538,-1.31258 0.145379,-1.31257 h 0.527729 0.52773 l 0.506697,1.80974 0.506696,1.80974 0.555467,0.461 0.555467,0.46099 v -0.49653 -0.49653 l 0.574955,0.22063 0.574955,0.22063 -0.61763,-1.47819 -0.617629,-1.4782 0.246617,-1.79927 0.246618,-1.79927 0.778458,-1.31939 0.778459,-1.31939 -0.578531,0.22201 -0.578534,0.222 v -0.63634 -0.63634 l -0.605806,0.23247 -0.605805,0.23247 v -0.775 -0.775 l -1.211612,-0.89578 -1.211611,-0.89579 v -0.59371 -0.59372 h 0.611536 0.611536 l -0.997657,-1.51451 -0.997657,-1.51451 -0.623555,-2.40711 -0.623555,-2.40711 v -0.85152 -0.85152 l 0.645278,-2.19362 0.645278,-2.19363 1.940311,-1.88153 1.940311,-1.88154 2.160964,-0.44861 2.160966,-0.44862 2.018274,0.60214 2.018277,0.60215 1.412703,0.97175 1.412706,0.97175 1.616322,-1.09294 1.616326,-1.09293 1.724624,-0.675 1.724619,-0.675 2.314085,0.009 2.31408,0.009 1.757665,0.79758 1.757668,0.79758 1.493909,1.1832 1.493912,1.1832 1.10734,2.03455 1.10734,2.03455 0.230477,1.94602 0.230481,1.94603 -0.664718,2.59466 -0.664718,2.59465 -0.617438,0.68225 -0.617433,0.68226 0.483583,0.1612 0.483582,0.16119 -0.429411,0.7894 -0.429411,0.7894 -0.232339,0.7422 -0.232339,0.74221 -1.21069,0.45698 -1.21069,0.45699 v 0.92113 0.92113 h -0.151076 -0.151064 l -1.913643,-1.06955 -1.913643,-1.06956 1.156002,1.74683 1.155999,1.74684 v 2.47048 2.47048 l -0.776837,1.18559 -0.776833,1.18561 -0.164476,-0.49343 -0.164472,-0.49342 -1.279979,1.88613 -1.279978,1.88613 -1.572716,1.2407 -1.572716,1.2407 -0.176314,-0.50161 -0.176313,-0.50161 -0.80932,0.43313 -0.809324,0.43314 -2.338527,-0.0112 -2.338531,-0.0112 -2.372787,-0.83045 -2.372788,-0.83045 -0.931087,-0.70537 -0.931085,-0.70537 -2.703748,2.54743 -2.703747,2.54742 -3.12781,2.47157 -3.127809,2.47157 0.666214,0.73616 0.666214,0.73616 h -0.453472 -0.453471 l -4.423216,-3.19818 -4.423216,-3.19817 -0.593168,0.47205 -0.593168,0.47205 -0.261943,1.49701 -0.261943,1.49702 -1.049124,0.82524 -1.049124,0.82524 h -1.530029 -1.530029 l -1.199578,-1.00938 -1.199578,-1.00938 -1.75173,-3.48698 -1.751729,-3.48698 -1.421287,-0.88335 -1.421286,-0.88336 -0.525571,-0.31112 -0.525571,-0.31112 0.648081,1.55117 0.648081,1.55116 3.268533,5.54052 3.268532,5.54052 0.352279,-0.21772 0.352279,-0.21772 0.582477,1.34106 0.582477,1.34106 0.01581,-0.50483 0.01581,-0.50484 h 0.334834 0.334833 l 0.921954,1.96841 0.921954,1.96841 0.993713,1.16158 0.993714,1.16159 -0.237737,-0.47693 -0.237737,-0.47693 0.331926,-0.20514 0.331925,-0.20515 2.400788,2.43313 2.400788,2.43312 0.130581,-0.64041 0.130581,-0.6404 h 0.388466 0.388467 l 0.995466,0.65225 0.995467,0.65226 v -0.65226 -0.65225 h 0.430421 0.430422 l 0.78119,0.41808 0.78119,0.41808 v -0.8068 -0.8068 l 0.825701,-2.20689 0.825701,-2.20688 1.648398,-1.6484 1.648399,-1.6484 1.531518,-0.2449 1.531518,-0.2449 -1.78433,-2.19067 -1.784331,-2.19068 v -0.46741 -0.46742 l 1.004194,-1.44905 1.004193,-1.44905 2.043948,-1.55873 2.043947,-1.55874 1.085093,0.56286 1.085094,0.56285 3.092012,2.93921 3.092011,2.93921 0.936762,1.36711 0.936761,1.36712 1.145377,-0.96377 1.145376,-0.96377 1.657472,-0.44631 1.657476,-0.44632 1.738238,0.66385 1.738243,0.66383 1.129464,1.32969 1.129464,1.32968 0.74836,0.91857 0.748359,0.91858 2.384237,-0.2492 2.384233,-0.2492 3.97776,-1.82334 3.977752,-1.82334 h 2.00051 2.00051 l 0.78333,0.57279 0.78333,0.57278 -0.26768,0.26768 -0.26768,0.26768 -0.90285,-0.48319 -0.90285,-0.4832 -1.82401,0.25001 -1.824004,0.25001 -3.66869,1.69955 -3.66869,1.69954 -2.649188,0.15763 -2.649189,0.15762 0.520452,2.48297 0.520452,2.48296 0.0084,3.14037 0.0084,3.14036 1.191555,-0.61617 1.191555,-0.61618 h 1.271598 1.271598 l 1.315907,0.62444 1.315907,0.62444 1.095716,1.14368 1.095717,1.14368 1.535956,-0.34511 1.535958,-0.3451 1.11361,-0.4234 z m -44.023424,-3.12935 v -3.93779 l 0.816981,-1.41355 0.81698,-1.41354 1.792786,-0.90871 1.792786,-0.90871 h -0.86233 -0.86233 l -1.300069,1.09394 -1.300068,1.09393 -0.741401,1.63219 -0.741401,1.63219 -0.0089,2.27177 -0.0089,2.27177 0.252419,1.2621 0.25242,1.26209 0.05048,5e-5 0.05048,5e-5 z m 26.049643,0.93249 v -0.1781 l -0.466273,-0.28817 -0.466272,-0.28817 0.288174,0.46627 0.288169,0.46627 h 0.178103 0.178099 z m -21.40642,-5.78936 0.0013,-2.53456 -1.157151,0.59839 -1.157152,0.59838 -0.660265,1.39141 -0.660266,1.3914 v 0.55547 0.55546 l 1.81613,-0.0107 1.816131,-0.0107 0.0013,-2.53456 z m 20.188625,0.0104 -0.0062,-0.3029 -0.3915,-0.60581 -0.3915,-0.6058 -0.0062,0.90871 -0.0062,0.9087 h 0.40387 0.403871 l -0.0062,-0.3029 z m -9.810473,-3.82098 1.133442,0.21538 -0.554288,-0.6709 -0.554292,-0.67091 h -0.744078 -0.744079 l -0.418083,0.78119 -0.418078,0.78119 v 0.25733 0.25734 l 0.583007,-0.58301 0.583007,-0.58301 z m 4.162471,-1.32837 v -0.20193 h -0.201936 -0.201935 v 0.20193 0.20194 h 0.201935 0.201936 z m -11.414432,-0.85902 0.903619,-0.2422 -0.785337,-1.1029 -0.785334,-1.1029 -1.886307,-2.09803 -1.886306,-2.09802 0.282137,-0.28214 0.282137,-0.28214 2.105074,2.21626 2.105073,2.21626 0.812538,1.14241 0.812535,1.1424 1.344973,-0.13273 1.344973,-0.13273 -2.314347,-2.95288 -2.314348,-2.95288 0.234665,-0.23467 0.234665,-0.23466 0.619433,0.51408 0.619432,0.51409 2.201494,2.92509 2.201494,2.9251 0.809619,0.21172 0.809618,0.21172 0.245368,-0.77309 0.245367,-0.77308 -1.414778,-1.92732 -1.414774,-1.92731 -2.148474,-2.03031 -2.148473,-2.03032 -1.090869,-0.71354 -1.090869,-0.71355 -0.78512,0.24919 -0.785121,0.24919 -1.859812,1.98829 -1.859812,1.98829 v 0.66201 0.662 l 2.270608,2.58626 2.270608,2.58626 0.455517,-0.006 0.455517,-0.006 0.903617,-0.24219 z m -24.000085,-5.37213 0.986406,-0.37503 0.453432,-1.30072 0.453433,-1.30072 v -0.16888 -0.16888 l -0.807741,0.25636 -0.807741,0.25637 v -0.42566 -0.42567 l 1.312579,-0.55549 1.312579,-0.55548 0.739227,-0.83018 0.739227,-0.83017 -0.133421,-0.94202 -0.133422,-0.94201 -1.817417,0.011 -1.817417,0.011 -1.360435,0.33449 -1.360434,0.33449 0.171555,-0.51467 0.171556,-0.51466 1.592749,-0.5505 1.59275,-0.55049 0.747317,-0.74565 0.747317,-0.74565 -0.484326,-0.90498 -0.484327,-0.90497 -1.676537,0.2318 -1.676537,0.2318 -1.817417,0.27112 -1.817417,0.27113 0.439293,-0.47013 0.439294,-0.47013 1.983929,-0.48961 1.98393,-0.48963 0.13197,-0.93094 0.13197,-0.93093 -0.484325,-0.58358 -0.484325,-0.58358 h -1.429565 -1.429565 l -2.150917,0.67802 -2.150918,0.67802 -0.245469,-0.24547 -0.245469,-0.24547 2.360889,-2.83098 2.36089,-2.83098 0.131426,0.5854 0.131427,0.58541 -1.272893,1.60716 -1.272893,1.60716 1.343402,-0.28984 1.343401,-0.28984 1.009676,0.0144 1.009676,0.0144 0.781025,0.17842 0.781026,0.17843 0.535929,-2.60584 0.535929,-2.60584 -0.459306,-1.43285 -0.459306,-1.43287 -0.617341,-0.70677 -0.61734,-0.70678 h -1.099565 -1.099564 l -0.498808,0.60103 -0.498808,0.60103 0.651292,0.24992 0.651291,0.24992 v 0.52417 0.52416 l -1.540225,-0.20658 -1.540224,-0.20659 -2.483094,2.70986 -2.483094,2.70986 -1.025062,2.05703 -1.025062,2.05703 v 0.95043 0.95044 l 0.591136,1.14313 0.591136,1.14313 2.047423,1.47093 2.047423,1.47093 0.393903,0.89975 0.393902,0.89975 1.511081,2.82358 1.511081,2.82358 1.009676,0.5024 1.009676,0.5024 0.478546,0.006 0.478546,0.006 0.986406,-0.37503 z m 36.180017,-8.13753 1.371309,-0.83602 0.323816,0.52395 0.323819,0.52395 1.642609,-1.77927 1.642614,-1.77927 0.470897,-1.64296 0.470897,-1.64296 0.133277,-0.17245 0.133273,-0.17245 0.588791,0.77825 0.588786,0.77826 0.01284,-2.34231 0.01285,-2.34231 -0.63671,-1.29252 -0.636706,-1.29252 -1.483614,-1.30658 -1.48361,-1.30657 1.059865,-0.006 1.059869,-0.006 1.666256,0.58789 1.666261,0.58789 v -0.33434 -0.33434 l 1.708497,-0.2732 1.708493,-0.2732 -0.415292,-0.28325 -0.415292,-0.28326 -0.05607,-0.90316 -0.05607,-0.90316 1.148018,-1.14802 1.148018,-1.14802 0.439694,-1.58365 0.439694,-1.58366 -0.0066,-2.42322 -0.0066,-2.42322 -0.735747,-1.61548 -0.735747,-1.61548 -1.65448,-1.49167 -1.654483,-1.49167 -1.336702,-0.71896 -1.336706,-0.71896 -2.827093,0.002 -2.827093,0.002 -2.023205,1.05543 -2.023209,1.05543 -0.965643,0.78193 -0.965642,0.78193 -1.977127,-1.33051 -1.977132,-1.33051 -1.425622,-0.26745 -1.425622,-0.26745 -1.880336,0.25773 -1.880333,0.25773 -1.404856,1.13704 -1.404856,1.13704 -0.91343,1.78592 -0.913431,1.78592 0.01701,2.62516 0.01701,2.62516 0.310923,0.79549 0.310924,0.7955 0.569399,-1.18429 0.569407,-1.18427 1.413547,-0.95445 1.413546,-0.95444 1.615482,0.19355 1.615482,0.19354 1.407827,0.35734 1.407828,0.35734 0.935408,1.38804 0.935405,1.38805 -0.252851,1.01979 -0.252856,1.01979 -0.852465,0.91324 -0.852466,0.91325 -1.605126,0.43222 -1.605124,0.43221 -1.436252,-0.26944 -1.436251,-0.26944 -1.225567,-0.62257 -1.225567,-0.62257 0.908709,0.98613 0.908708,0.98612 v 0.47881 0.47881 l -0.706773,0.0201 -0.706773,0.0201 1.817417,0.8699 1.817417,0.8699 0.120332,0.27871 0.120332,0.2787 0.788376,-0.20616 0.788376,-0.20617 v 0.37251 0.37251 l -1.044532,1.39104 -1.044531,1.39105 -0.400216,1.00967 -0.400216,1.00968 -0.0025,1.69217 -0.0025,1.69217 0.425245,0.73105 0.425245,0.73105 0.01228,-0.28367 0.01228,-0.28367 1.918384,1.91334 1.918385,1.91334 2.625158,0.87715 2.625157,0.87715 1.817417,0.0159 1.817417,0.0159 1.371306,-0.83601 z m -9.65065,-3.15132 -1.009676,-0.3304 -1.689047,-0.86288 -1.689048,-0.86289 -0.269779,-0.43651 -0.269779,-0.43651 0.178666,-0.17867 0.178666,-0.17866 2.552022,1.31617 2.552021,1.31618 3.670714,-0.012 3.670713,-0.012 2.019353,-0.91599 2.019352,-0.91599 1.668861,-1.63355 1.668865,-1.63354 -0.201454,-0.77036 -0.201451,-0.77035 h 0.388378 0.388378 l 0.668402,0.73857 0.668401,0.73857 v 0.49075 0.49074 l -0.504838,-0.0916 -0.504838,-0.0916 -1.755205,1.66315 -1.755204,1.66315 -1.87963,0.90618 -1.879629,0.90617 -3.836769,0.1172 -3.836769,0.1172 -1.009676,-0.33039 z m 1.039817,-10.51569 -0.700857,-0.77443 0.133423,-0.94202 0.133423,-0.94201 0.86971,-0.12395 0.869715,-0.12394 0.6448,0.92058 0.644803,0.92058 v 0.71788 0.71788 h -0.360087 -0.360087 l -0.242233,-0.96513 -0.242234,-0.96513 -0.609291,-0.23381 -0.609291,-0.2338 v 0.36234 0.36235 l 0.605806,0.60581 0.605806,0.6058 v 0.43272 0.43272 H 58.65179 58.310516 Z m 4.147091,0.35924 -0.669209,-0.39064 0.204637,-0.78253 0.204637,-0.78254 0.737427,-0.66736 0.737427,-0.66736 0.693534,0.13636 0.693535,0.13637 0.447161,0.73125 0.447157,0.73124 -1.133163,0.98521 -1.133168,0.9852 -0.280379,-0.0123 -0.280383,-0.0123 z m 1.908966,-1.94516 -0.739095,-0.14234 -0.345111,0.54458 -0.345111,0.54457 -0.0062,0.31222 -0.0062,0.31221 1.090394,-0.71445 1.090389,-0.71446 -0.739095,-0.14233 z m -8.74375,0.86161 -0.416272,-1.09488 0.234938,-0.93606 0.234936,-0.93607 1.381495,-0.65879 1.381499,-0.65879 1.263481,0.36748 1.26348,0.36748 -0.131391,0.40387 -0.131391,0.40387 -1.642032,-0.13105 -1.642037,-0.13104 -0.524062,0.63145 -0.524062,0.63146 0.266013,1.41798 0.266013,1.41797 h -0.432169 -0.432166 z m 10.812976,0.43247 -0.25153,-0.25154 0.412033,-0.76989 0.412036,-0.76989 -0.251227,-0.79155 -0.251228,-0.79155 -1.061028,-0.2663 -1.061028,-0.2663 -1.124315,0.64527 -1.124319,0.64527 -0.201434,-0.32593 -0.201439,-0.32593 0.757625,-0.68564 0.757624,-0.68564 1.230246,-0.035 1.230246,-0.035 1.031635,0.67595 1.031634,0.67595 v 1.35479 1.35478 l -0.541998,0.44982 -0.541998,0.44982 -0.251535,-0.25153 z m 2.052458,-4.40972 -1.100491,-0.59721 -0.414023,-0.77361 -0.414024,-0.77362 v -1.14829 -1.1483 l 0.630321,-0.89991 0.630324,-0.89992 1.167036,-0.60349 1.16704,-0.6035 h 2.18162 2.181615 l 1.372307,0.92229 1.372303,0.92229 0.367401,1.47338 0.367405,1.47339 -0.701721,1.07095 -0.701716,1.07096 -1.369162,0.57207 -1.369161,0.57207 -2.133292,-0.0162 -2.133292,-0.0162 z m 5.262674,-0.42501 1.234123,-0.24683 0.835713,-0.77858 0.835713,-0.77858 v -1.19588 -1.19588 l -0.785213,-0.78522 -0.785217,-0.78521 -1.436071,-0.26941 -1.436074,-0.26941 -1.514514,0.29245 -1.514514,0.29245 0.885163,0.33658 0.885166,0.33658 0.638511,0.97449 0.638512,0.9745 -0.260885,0.76368 -0.260884,0.76368 -1.060854,0.9067 -1.060859,0.9067 1.46403,0.002 1.464031,0.002 1.234123,-0.24682 z m -2.824395,-3.09097 0.135454,-0.70335 -0.676415,-0.25957 -0.676414,-0.25956 -0.325742,0.52706 -0.325745,0.52707 0.215388,0.56129 0.215384,0.56128 0.651318,-0.12543 0.651318,-0.12543 z m -1.337789,-5.14349 -0.249604,-0.40387 h 0.403871 0.40387 l 0.249604,0.40387 0.249604,0.40388 h -0.40387 -0.403871 z m -15.806832,24.83804 -0.232469,-0.60581 h -0.410113 -0.410112 l 0.502774,0.60581 0.502774,0.6058 h 0.139808 0.139808 z m 41.856472,-13.34143 1.81742,-0.92385 1.28806,-1.34864 1.28806,-1.34864 1.00907,-2.18593 1.00908,-2.18593 0.26515,-2.4759 0.26514,-2.4759 -0.45258,-1.68076 -0.45259,-1.68077 -1.08116,-1.28489 -1.08117,-1.2849 -1.31846,-0.55088 -1.31846,-0.55089 h -1.54288 -1.54288 l -1.80202,0.9087 -1.80203,0.90871 -0.68737,1.41355 -0.68738,1.41355 -0.0194,1.70427 -0.0194,1.70428 1.46991,-0.9975 1.4699,-0.99751 1.66009,0.002 1.66009,10e-4 1.25375,0.76452 1.25376,0.76452 0.25969,1.29846 0.25969,1.29847 -0.74413,1.67131 -0.74414,1.6713 -1.88242,1.72704 -1.88242,1.72704 -1.14364,0.22873 -1.14364,0.22873 0.39574,2.00146 0.39573,2.00146 1.25521,-0.27119 1.25521,-0.27115 z m -53.34638,-4.9792 -0.482766,-0.16092 -1.555368,-1.40518 -1.555368,-1.40518 -0.458901,-1.53168 -0.458903,-1.53168 0.758882,-1.55187 0.758882,-1.55187 1.125154,-0.38806 1.125153,-0.38806 1.197101,0.45185 1.197102,0.45186 0.0055,-0.87363 0.0055,-0.87362 0.238401,-0.88912 0.238401,-0.88911 -1.354559,-0.82583 -1.354559,-0.82582 -1.541065,-0.002 -1.541066,-0.002 -0.815524,0.43645 -0.815525,0.43646 -0.764536,1.68386 -0.764537,1.68387 -0.0089,2.27971 -0.0089,2.27971 0.818715,2.65069 0.818715,2.65069 1.318636,1.72885 1.318636,1.72885 1.396515,0.94325 1.396515,0.94324 0.122673,-2.54688 0.122672,-2.54688 z m 15.126161,0.72295 1.064142,-0.83705 v -1.20159 -1.20158 l -1.034954,-0.95916 -1.034954,-0.95917 -1.489236,-0.23869 -1.489236,-0.23869 -1.211611,0.37469 -1.211612,0.37468 0.677461,0.0347 0.67746,0.0347 0.837054,1.06414 0.837054,1.06414 v 0.58241 0.5824 l -1.180545,1.18055 -1.180544,1.18054 h 2.33769 2.337689 z m 36.200869,-0.75497 1.41355,-1.10811 0.90871,-1.33482 0.9087,-1.33481 v -1.32498 -1.32497 l -0.63404,-0.63405 -0.63405,-0.63404 -1.01802,-0.25551 -1.01803,-0.25551 -1.50211,0.45005 -1.50211,0.45004 -0.86341,0.91906 -0.86341,0.91906 0.77436,1.7296 0.77437,1.72961 1.18739,-0.61403 1.18738,-0.61402 0.18044,-0.51333 0.18044,-0.51334 -0.33046,-0.89441 -0.33045,-0.89441 0.36818,-0.22754 0.36817,-0.22755 0.45848,0.85667 0.45847,0.85667 -0.24932,0.99338 -0.24932,0.99337 -1.39848,0.82513 -1.39848,0.82512 0.2437,0.97098 0.24369,0.97097 h -0.44765 -0.44765 v 0.43109 0.43109 l 0.90871,-0.26918 0.9087,-0.26917 z m -51.558702,-3.41001 -1.129949,-0.97195 0.395651,-1.11968 0.395651,-1.11968 0.483768,-0.1606 0.483768,-0.1606 -0.225376,1.38883 -0.225378,1.38884 0.448382,0.27711 0.448382,0.27712 v -0.83158 -0.83157 h 0.40387 0.403871 v -1.21815 -1.21814 l -1.410439,-0.6726 -1.410439,-0.67259 -1.012783,0.95146 -1.012784,0.95146 v 1.45522 1.45522 l 0.652943,0.93221 0.652943,0.9322 1.265441,0.77365 1.265442,0.77364 0.128493,-0.80394 0.128493,-0.80394 z m 9.480421,1.66424 0.135454,-0.70335 -0.662801,-0.25434 -0.662802,-0.25435 -0.43035,0.43036 -0.43035,0.43035 0.254341,0.6628 0.254341,0.6628 0.703356,-0.13546 0.703357,-0.13545 z"
     id="path1596" /><path
     style="fill:#000000;stroke-width:0.0525519"
     d="m 81.780053,144.25117 -0.277367,-0.14032 -0.128285,-0.16819 -0.128285,-0.16819 -0.08046,-0.19255 -0.08046,-0.19256 v -0.91534 -0.91535 l 0.145915,-0.2819 0.145914,-0.28189 0.274502,-0.18146 0.274501,-0.18144 v -0.66188 -0.66185 l -0.274501,-0.18146 -0.274502,-0.18144 -0.145914,-0.2819 -0.145915,-0.2819 v -0.93394 -0.93394 l 0.145915,-0.28189 0.145914,-0.28189 0.274502,-0.18146 0.274501,-0.18144 v -0.87208 -0.87207 l -0.274501,-0.18146 -0.274502,-0.18144 -0.145914,-0.2819 -0.145915,-0.2819 v -0.93394 -0.93393 l 0.145915,-0.2819 0.145914,-0.28189 0.274502,-0.18146 0.274501,-0.18144 v -0.64625 -0.64624 h -0.276375 -0.276377 l -0.09532,0.43355 -0.09532,0.43356 -0.181728,0.53845 -0.181728,0.53846 -0.225907,0.48631 -0.225908,0.4863 -0.268157,0.432 -0.268158,0.43199 -0.330435,0.43512 -0.330434,0.43511 -0.500808,0.50081 -0.500808,0.5008 -0.435113,0.33044 -0.435114,0.33043 -0.408288,0.25323 -0.408288,0.25323 -0.365294,0.18336 -0.365295,0.18334 -0.499243,0.18515 -0.499245,0.18514 -0.499243,0.13306 -0.499244,0.13305 -0.566524,0.0825 -0.566527,0.0825 h -0.813834 -0.813832 l -0.642893,-0.10476 -0.642893,-0.10477 -0.446692,-0.12635 -0.446692,-0.12635 -0.428652,-0.15989 -0.428651,-0.15992 -0.385905,-0.19298 -0.385904,-0.19301 -0.39414,-0.24137 -0.39414,-0.24138 -0.420415,-0.31461 -0.420417,-0.31461 -0.554805,-0.55481 -0.554806,-0.5548 -0.314613,-0.42042 -0.314614,-0.42041 -0.241416,-0.39415 -0.241417,-0.39413 -0.208899,-0.42042 -0.208899,-0.42042 -0.162213,-0.44669 -0.162211,-0.44669 -0.108902,-0.39415 -0.108901,-0.39413 -0.103954,-0.64289 -0.103952,-0.6429 v -0.84257 -0.84257 l 0.103181,-0.64289 0.103183,-0.64289 0.156568,-0.52552 0.156569,-0.52553 0.138797,-0.36785 0.138795,-0.36786 0.237285,-0.45962 0.237284,-0.45961 0.35619,-0.53888 0.356191,-0.53888 0.419335,-0.47296 0.419334,-0.47296 0.362273,-0.31786 0.362274,-0.31785 0.325168,-0.24763 0.325168,-0.24763 0.436835,-0.27138 0.436837,-0.27138 0.421482,-0.19792 0.421481,-0.1979 0.436009,-0.16077 0.436007,-0.16076 0.508862,-0.12813 0.508861,-0.12812 0.558541,-0.0821 0.55854,-0.0821 h 0.748516 0.748514 l 0.55854,0.0821 0.558541,0.0821 0.508861,0.12812 0.508863,0.12813 0.410797,0.1527 0.410798,0.15268 0.447573,0.2071 0.447572,0.20711 0.445811,0.27896 0.445812,0.27895 0.417169,0.31705 0.41717,0.31706 0.505737,0.50573 0.505737,0.50574 0.317119,0.41718 0.317118,0.41716 0.291108,0.47296 0.291108,0.47298 0.239507,0.52552 0.239508,0.52551 0.15632,0.47298 0.156319,0.47296 0.09581,0.43355 0.09581,0.43356 h 0.642269 0.642268 l 0.302517,0.11319 0.302516,0.11318 0.269445,0.26945 0.269444,0.26944 0.113186,0.30251 0.113186,0.30252 v 0.31137 0.31137 l -0.113186,0.30252 -0.113186,0.30251 -0.268377,0.26838 -0.268376,0.26838 -0.249061,0.0951 -0.249061,0.0951 v 0.67468 0.67469 l 0.152079,0.0786 0.152078,0.0786 0.171163,0.17116 0.171162,0.17117 0.09602,0.21137 0.09602,0.21138 0.0011,0.9268 0.0011,0.92679 -0.145915,0.2819 -0.145913,0.2819 -0.274502,0.18144 -0.274501,0.18146 v 0.88137 0.88139 l 0.152078,0.0786 0.15208,0.0786 0.171162,0.17116 0.171162,0.17117 0.09602,0.21137 0.09602,0.21138 0.0011,0.92679 0.0011,0.9268 -0.145915,0.28189 -0.145914,0.28191 -0.274501,0.18144 -0.27451,0.18145 v 0.66186 0.66188 l 0.274501,0.18144 0.274502,0.18146 0.148979,0.28776 0.148981,0.28776 -0.0162,0.97784 -0.0162,0.97783 -0.159046,0.25702 -0.159045,0.25701 -0.255098,0.15773 -0.255099,0.15771 -0.347859,0.018 -0.34786,0.018 z m 0.855439,-0.87199 0.105104,-0.10088 0.01754,-0.66077 0.01754,-0.66077 -0.03216,-0.12814 -0.03215,-0.12813 -0.11531,0.0808 -0.11531,0.0808 H 82.314934 82.14913 l -0.06749,-0.0813 -0.06749,-0.0813 -0.04325,0.0681 -0.04325,0.0682 -3.1e-5,0.6569 -3e-5,0.6569 0.06595,0.13034 0.06595,0.13035 0.130344,0.0656 0.130344,0.0656 0.105104,-0.0307 0.105104,-0.0307 z m -0.289035,-5.30094 h 0.134269 l 0.111464,0.0781 0.111465,0.0781 0.03161,-0.0824 0.03161,-0.0824 -8.2e-4,-0.63946 -8.2e-4,-0.63947 -0.04325,-0.0681 -0.04325,-0.0681 -0.06749,0.0813 -0.06749,0.0813 h -0.197338 -0.197339 l -0.06749,-0.0813 -0.06749,-0.0813 -0.04325,0.0681 -0.04325,0.0681 -8.2e-4,0.63947 -8.2e-4,0.63946 0.03161,0.0824 0.03161,0.0824 0.111463,-0.0781 0.111463,-0.0781 z m -9.142351,-2.23384 0.448387,-0.0697 0.339892,-0.0856 0.339893,-0.0856 0.420415,-0.15052 0.420417,-0.15051 0.363283,-0.16405 0.363284,-0.16406 0.424995,-0.2574 0.424998,-0.2574 0.39414,-0.29445 0.39414,-0.29446 0.465509,-0.45812 0.465509,-0.45813 0.313182,-0.40884 0.313181,-0.40884 0.258243,-0.41637 0.258245,-0.41637 0.228272,-0.51488 0.228274,-0.51485 0.08437,-0.23648 0.08437,-0.23649 0.106473,-0.39414 0.106475,-0.39414 0.08484,-0.52552 0.08485,-0.52552 v -0.81456 -0.81455 l -0.08554,-0.52552 -0.08554,-0.52552 -0.07973,-0.28903 -0.07973,-0.28904 -0.108194,-0.34159 -0.108194,-0.34159 -0.238135,-0.52552 -0.238136,-0.52552 -0.25361,-0.41055 -0.253609,-0.41057 -0.247095,-0.32517 -0.247095,-0.32516 -0.449765,-0.46561 -0.449765,-0.46561 -0.422471,-0.33152 -0.422471,-0.33151 -0.429017,-0.26609 -0.429018,-0.26609 -0.514863,-0.23003 -0.514862,-0.23006 -0.341589,-0.10864 -0.341588,-0.10865 -0.289035,-0.0798 -0.289037,-0.0798 -0.341588,-0.0577 -0.341588,-0.0577 -0.592438,-0.0437 -0.592439,-0.0437 -0.619792,0.0431 -0.619793,0.0431 -0.532486,0.10851 -0.532485,0.10852 -0.515019,0.1769 -0.515019,0.1769 -0.39414,0.18165 -0.39414,0.18164 -0.431993,0.26807 -0.431996,0.26807 -0.408836,0.31191 -0.408838,0.31193 -0.439714,0.44049 -0.439714,0.4405 -0.298325,0.39415 -0.298327,0.39413 -0.241233,0.39414 -0.241235,0.39414 -0.130442,0.26276 -0.130443,0.26276 -0.187535,0.47713 -0.187534,0.47713 -0.113092,0.44253 -0.113093,0.44253 -0.07982,0.47296 -0.07982,0.47298 -0.0024,0.84082 -0.0024,0.84084 0.06453,0.42042 0.06453,0.42041 0.125558,0.49924 0.125558,0.49925 0.159179,0.43433 0.159179,0.43434 0.185296,0.36795 0.185296,0.36795 0.215909,0.35276 0.215911,0.35275 0.301649,0.39626 0.301649,0.39626 0.465673,0.46568 0.465674,0.46567 0.395159,0.29796 0.39516,0.29797 0.342341,0.21368 0.34234,0.21368 0.335522,0.16938 0.33552,0.16937 0.471421,0.1799 0.471418,0.1799 0.506107,0.12575 0.506107,0.12574 0.446691,0.059 0.446692,0.059 0.26276,0.017 0.26276,0.017 0.578072,-0.0234 0.578072,-0.0234 0.448388,-0.0696 z m -2.650273,-0.36913 -0.415117,-0.0697 -0.373163,-0.0904 -0.373162,-0.0904 -0.471341,-0.17875 -0.471341,-0.17876 -0.553834,-0.28776 -0.553833,-0.28776 -0.456408,-0.33748 -0.456407,-0.33748 -0.401855,-0.38172 -0.401854,-0.38172 -0.319475,-0.39613 -0.319475,-0.39613 -0.230976,-0.35599 -0.230978,-0.35598 -0.251485,-0.51113 -0.251484,-0.51113 -0.162264,-0.47296 -0.162266,-0.47297 -0.120192,-0.55179 -0.120193,-0.55179 v -1.12988 -1.12986 l 0.120255,-0.5518 0.120257,-0.5518 0.131895,-0.39414 0.131894,-0.39413 0.30756,-0.63063 0.30756,-0.63062 0.261452,-0.39414 0.261453,-0.39414 0.377536,-0.43557 0.377536,-0.43556 0.449367,-0.39285 0.449368,-0.39288 0.360271,-0.23951 0.360271,-0.23951 0.488406,-0.25711 0.488408,-0.25713 0.349182,-0.13143 0.349184,-0.13142 0.472376,-0.13282 0.472376,-0.13281 0.569187,-0.0851 0.569187,-0.0851 0.867107,0.0277 0.867108,0.0277 0.52552,0.11223 0.52552,0.11222 0.551796,0.18616 0.551796,0.18616 0.551795,0.28618 0.551797,0.28617 0.498295,0.35266 0.498294,0.35264 0.552745,0.55467 0.552745,0.55468 0.352648,0.49636 0.352647,0.49636 0.286177,0.5518 0.286176,0.5518 0.186209,0.55179 0.186209,0.5518 0.119394,0.55179 0.119394,0.5518 v 1.07732 1.07731 l -0.119394,0.5518 -0.119394,0.5518 -0.187349,0.55179 -0.187349,0.5518 -0.183648,0.36787 -0.183649,0.36786 -0.187999,0.31531 -0.187998,0.31531 -0.31687,0.42042 -0.31687,0.42041 -0.448411,0.45085 -0.44841,0.45085 -0.420417,0.31444 -0.420416,0.31442 -0.315311,0.188 -0.315313,0.188 -0.392197,0.19603 -0.392199,0.19603 -0.628321,0.20632 -0.62832,0.20632 -0.600677,0.10268 -0.600677,0.1027 -0.822471,-0.005 -0.822472,-0.005 z m 1.886573,-0.81142 0.52552,-0.0475 0.420416,-0.0856 0.420416,-0.0856 0.472968,-0.16059 0.472967,-0.1606 0.420417,-0.21075 0.420416,-0.21077 0.422856,-0.27828 0.422856,-0.27828 0.367027,-0.33218 0.367029,-0.33217 0.238548,-0.26276 0.238549,-0.26277 0.238843,-0.31531 0.238842,-0.3153 0.271081,-0.47287 0.271081,-0.47289 0.163065,-0.42051 0.163066,-0.42051 0.09955,-0.34158 0.09955,-0.34159 0.08251,-0.49925 0.08251,-0.49924 v -0.70945 -0.70945 l -0.08327,-0.5099 -0.08327,-0.5099 -0.204695,-0.62336 -0.204696,-0.62337 -0.143132,-0.28564 -0.143131,-0.28564 -0.188111,-0.31531 -0.188111,-0.31531 -0.254994,-0.34159 -0.254993,-0.34159 -0.404934,-0.41317 -0.404935,-0.41318 -0.39414,-0.29955 -0.39414,-0.29956 -0.325799,-0.19598 -0.3258,-0.19599 -0.383652,-0.17572 -0.383652,-0.17573 -0.406364,-0.13508 -0.406365,-0.13507 -0.397536,-0.0821 -0.397537,-0.0821 -0.575589,-0.0463 -0.575588,-0.0463 -0.57559,0.0463 -0.575589,0.0463 -0.409761,0.0836 -0.40976,0.0836 -0.518355,0.179 -0.518357,0.179 -0.447342,0.23798 -0.447342,0.23797 -0.348102,0.23155 -0.348101,0.23156 -0.377135,0.33301 -0.377135,0.33301 -0.324275,0.36786 -0.324276,0.36787 -0.278235,0.42042 -0.278234,0.4204 -0.192767,0.38591 -0.192766,0.3859 -0.147688,0.40238 -0.147689,0.40238 -0.110192,0.47296 -0.110193,0.47297 -0.05725,0.61749 -0.05726,0.61749 0.05726,0.61748 0.05725,0.61749 0.110193,0.47296 0.110192,0.47298 0.154034,0.4204 0.154035,0.42042 0.25894,0.49252 0.258942,0.49252 0.302776,0.42245 0.302776,0.42245 0.477658,0.47766 0.477657,0.47766 0.422452,0.30278 0.422453,0.30277 0.492518,0.25894 0.492518,0.25895 0.420416,0.15403 0.420416,0.15403 0.489034,0.11419 0.489033,0.11418 0.483178,0.0431 0.483178,0.0431 0.157657,0.005 0.157656,0.005 z m 5.396723,-7.21659 -0.113282,-0.12059 -0.05589,-0.64367 -0.05589,-0.64366 -0.13081,-0.45759 -0.130809,-0.45757 -0.210187,-0.44229 -0.210189,-0.44228 -0.246168,-0.37029 -0.246168,-0.37029 -0.343276,-0.36549 -0.343276,-0.36551 -0.420416,-0.31407 -0.420416,-0.31409 -0.52552,-0.25388 -0.52552,-0.25388 -0.45463,-0.1295 -0.45463,-0.12948 -0.648962,-0.0594 -0.648962,-0.0594 -0.118242,-0.11059 -0.118241,-0.11058 v -0.19724 -0.19724 l 0.138467,-0.10891 0.138466,-0.10892 h 0.363849 0.363848 l 0.37793,0.0571 0.377931,0.0571 0.469675,0.13041 0.469675,0.13042 0.423709,0.19147 0.42371,0.19148 0.341587,0.20589 0.341588,0.20589 0.210207,0.16196 0.210208,0.16194 0.26276,0.22982 0.26276,0.22982 0.306228,0.35031 0.306227,0.35029 0.231937,0.34792 0.231939,0.34792 0.203699,0.41408 0.2037,0.41409 0.134375,0.39415 0.134377,0.39413 0.08532,0.39414 0.08531,0.39414 0.02982,0.55179 0.02982,0.5518 -0.114949,0.14452 -0.114951,0.14452 h -0.197233 -0.197233 z m 4.509328,5.16557 h 0.134269 l 0.111464,0.0781 0.111465,0.0781 0.03161,-0.0824 0.03161,-0.0824 -8.2e-4,-0.63946 -8.2e-4,-0.63947 -0.04325,-0.0681 -0.04325,-0.0681 -0.06749,0.0813 -0.06749,0.0813 h -0.197338 -0.197339 l -0.06749,-0.0813 -0.06749,-0.0813 -0.04325,0.0681 -0.04325,0.0681 -8.2e-4,0.63947 -8.2e-4,0.63946 0.03161,0.0824 0.03161,0.0824 0.111463,-0.0781 0.111463,-0.0781 z m -0.420417,-4.70579 v -0.0812 l 0.128991,-0.12899 0.128991,-0.12899 h 0.162435 0.162433 l 0.129525,0.12953 0.129526,0.12952 0.07723,-0.0297 0.07723,-0.0296 0.112231,-0.1816 0.112231,-0.1816 v -0.25464 -0.25465 l -0.09803,-0.16652 -0.09803,-0.16652 -0.178356,-0.11044 -0.178357,-0.11044 -0.544233,-0.0242 -0.544234,-0.0242 v 0.84773 0.84772 h 0.210208 0.210208 z"
     id="path5317" /></svg>
