<?xml version="1.0" encoding="UTF-8" standalone="no"?>
<!-- Uploaded to: SVG Repo, www.svgrepo.com, Generator: SVG Repo Mixer Tools -->

<svg
   width="30"
   height="30"
   viewBox="0 0 2.4 2.4"
   aria-hidden="true"
   role="img"
   class="iconify iconify--emojione-monotone"
   preserveAspectRatio="xMidYMid"
   version="1.1"
   id="svg452"
   sodipodi:docname="monkey-rhs.svg"
   inkscape:version="1.2.1 (9c6d41e410, 2022-07-14)"
   xmlns:inkscape="http://www.inkscape.org/namespaces/inkscape"
   xmlns:sodipodi="http://sodipodi.sourceforge.net/DTD/sodipodi-0.dtd"
   xmlns="http://www.w3.org/2000/svg"
   xmlns:svg="http://www.w3.org/2000/svg">
  <defs
     id="defs456" />
  <sodipodi:namedview
     id="namedview454"
     pagecolor="#ffffff"
     bordercolor="#000000"
     borderopacity="0.25"
     inkscape:showpageshadow="2"
     inkscape:pageopacity="0.0"
     inkscape:pagecheckerboard="0"
     inkscape:deskcolor="#d1d1d1"
     showgrid="false"
     inkscape:zoom="2.9132799"
     inkscape:cx="82.209745"
     inkscape:cy="96.969741"
     inkscape:window-width="1920"
     inkscape:window-height="1011"
     inkscape:window-x="-9"
     inkscape:window-y="-9"
     inkscape:window-maximized="1"
     inkscape:current-layer="svg452" />
  <g
     id="g725"
     transform="matrix(-0.38461539,0,0,0.38462099,2.730243,-0.56964072)">
    <path
       d="M 6.2881466,3.8637715 C 6.1449727,3.6876642 5.9495385,3.5945837 5.7228174,3.5945837 c -0.2805411,0 -0.4503219,0.1168272 -0.5433157,0.2149343 A 0.66438957,0.66438957 0 0 0 4.9995809,4.2627 c 0,0.2954479 0.1941342,0.5100355 0.4617621,0.5100355 0.1298271,0 0.2580077,-0.061619 0.3427681,-0.1648407 0.089355,-0.1090271 0.1220271,-0.2520277 0.09178,-0.4026551 a 0.16336738,0.16336738 0 0 0 -0.1921405,-0.12818 0.16310739,0.16310739 0 0 0 -0.128007,0.1921409 c 0.010829,0.054513 0.00269,0.098887 -0.02418,0.1317338 -0.02756,0.03354 -0.065867,0.045413 -0.090219,0.045413 -0.1287872,0 -0.1354607,-0.1528807 -0.1354607,-0.1835608 0,-0.1267942 0.083635,-0.3415548 0.3968483,-0.3415548 0.1287001,0 0.2307944,0.048793 0.3120882,0.1488073 0.2656343,0.3268216 0.2567941,1.099025 0.1358071,1.6781341 C 6.0357735,6.3942761 5.843806,6.604877 5.7062654,6.667624 c -0.072367,0.033107 -0.1546139,0.0364 -0.2512477,0.00971 0.029727,-0.087967 0.0481,-0.1883276 0.0546,-0.302208 C 5.5691565,5.3335622 5.0469879,4.7937999 4.5652923,4.5182852 4.6228395,4.4073511 4.6583723,4.288011 4.6642666,4.1626904 4.9002609,4.1184904 5.0787084,3.9122227 5.0787084,3.6641814 5.0787084,3.4111137 4.8928942,3.2018995 4.6501398,3.163506 4.5894725,2.74854 4.3439448,2.4601122 3.9301962,2.2959646 4.0006562,2.2586975 4.0465033,2.2399776 4.0465033,2.2399776 3.8467357,2.1696904 3.6735751,2.1287833 3.523641,2.1101505 c 0.07904,-0.059367 0.1317339,-0.0819 0.1317339,-0.0819 C 2.436923,1.8563028 1.8364071,2.5338657 1.7986203,3.1647151 1.5600258,3.2065754 1.3786317,3.4139696 1.3786317,3.6640908 c 0,0.248041 0.1784475,0.4543086 0.4141818,0.4985088 0.021407,0.4554353 0.4154819,0.8385036 0.9591442,0.9828042 L 2.2563956,6.7365242 c -0.1178671,0.042034 -0.2359944,0.154354 -0.3118281,0.2098209 -0.062834,0.04576 -0.3926018,0.0559 -0.2843546,0.2547144 h 0.7150032 c 0.076267,-0.02496 0.1244543,-0.067947 0.1510607,-0.1183 l 8.66e-5,8.67e-5 0.00373,-0.00719 c 7.801e-4,-0.00156 0.00173,-0.00296 0.00243,-0.00459 L 3.4170467,5.3876424 c 0.0351,0.01248 0.073753,0.024353 0.11726,0.035708 C 3.2133731,5.5404327 3.1255794,6.2051685 3.2216065,6.8398313 3.0060654,6.9212983 2.5120634,6.9685312 2.6370372,7.2010595 h 1.0300379 c 0.056247,-0.076355 0.060234,-0.1540073 0.0312,-0.2203943 -0.059107,-0.4043884 0.045154,-0.6056293 0.045154,-0.6056293 -0.030247,0.4062086 0.022013,0.8260236 0.7258365,0.8260236 0.3614015,0 0.6329295,-0.07072 0.8082569,-0.2378143 0.084154,0.031807 0.1865941,0.058587 0.2978746,0.058587 0.085367,0 0.1759341,-0.015773 0.2666744,-0.057374 C 6.1456659,6.8255313 6.3578269,6.4494829 6.4902541,5.8145601 6.6208613,5.1897774 6.6460814,4.3039534 6.2881466,3.8637715 M 4.6656527,3.349316 c 0.1358074,0.04134 0.2353011,0.1657074 0.2353011,0.3148614 0,0.153574 -0.1056471,0.2816678 -0.2479543,0.3186746 a 0.88114386,0.88114386 0 0 0 -0.08684,-0.255321 c 0.061447,-0.1176071 0.09646,-0.2449212 0.099494,-0.378215 M 2.4602374,7.0172387 c -0.012649,0.0442 -0.046107,0.076874 -0.099754,0.097155 H 1.7369132 c 0.030247,-0.021927 0.1072942,-0.04316 0.1396208,-0.052 0.05018,-0.013867 0.089874,-0.024787 0.1192542,-0.046194 0.019847,-0.01456 0.042727,-0.032933 0.0676,-0.05304 0.07722,-0.06266 0.1939608,-0.1573007 0.2774213,-0.1573007 0.019847,0 0.046194,0.00459 0.076354,0.0403 0.040993,0.048707 0.058327,0.11752 0.043073,0.1710808 M 1.8040802,3.982852 C 1.6615996,3.9458452 1.5560392,3.817838 1.5560392,3.6640908 c 0,-0.1491541 0.099407,-0.2736946 0.2354743,-0.3148615 a 0.85280374,0.85280374 0 0 0 0.099494,0.378215 c -0.04238,0.080947 -0.071067,0.1665741 -0.086927,0.2554077 m 1.4242863,1.1385451 c -0.4990288,0 -0.9035907,-0.3039414 -0.9035907,-0.6789497 0,-0.128007 0.047927,-0.2471745 0.1298272,-0.3493548 C 2.1737153,3.9229652 1.9939677,3.6626173 1.9939677,3.370376 c 0,-1.0442512 1.2345721,-0.3789949 1.2345721,-0.3789949 0,0 1.2346588,-0.6652563 1.2346588,0.3789949 0,0.2921547 -0.1799208,0.5525892 -0.4610687,0.7227166 0.0819,0.1020941 0.1300005,0.2214343 0.1300005,0.3493548 0,0.3750083 -0.4046484,0.6789497 -0.9037639,0.6789497 m 0.389655,1.9929954 H 2.7107043 c 0.0416,-0.056334 0.2307076,-0.1057342 0.3459749,-0.1357206 0.080599,-0.020973 0.1566939,-0.040907 0.2147608,-0.064915 a 0.30472134,0.30472134 0 0 1 0.1176072,-0.023573 c 0.098454,0 0.1918809,0.048793 0.2270677,0.1184743 0.01742,0.034233 0.01794,0.06968 0.00191,0.1057342 m 0.02877,-1.7534485 A 1.6891407,1.6891407 0 0 1 3.4574313,5.3106772 l 0.0663,-0.1261871 a 1.7953945,1.7953945 0 0 0 0.2060942,-0.04576 C 4.2737444,5.2714178 4.4358985,5.8092734 4.481832,6.175355 4.3623182,5.8703737 4.1175704,5.4608718 3.6467951,5.3609448"
       fill="#000000"
       id="path440"
       style="stroke-width:0.0866671" />
    <ellipse
       cx="3.3608806"
       cy="4.0203786"
       rx="0.061620273"
       ry="0.12679389"
       fill="#000000"
       id="ellipse442"
       style="stroke-width:0.0866671" />
    <ellipse
       cx="3.0961125"
       cy="4.0203786"
       rx="0.061620273"
       ry="0.12679389"
       fill="#000000"
       id="ellipse444"
       style="stroke-width:0.0866671" />
    <ellipse
       cx="3.7640557"
       cy="3.5886903"
       rx="0.21580094"
       ry="0.27742121"
       fill="#000000"
       id="ellipse446"
       style="stroke-width:0.0866671" />
    <ellipse
       cx="2.6933708"
       cy="3.588604"
       rx="0.21588762"
       ry="0.27733457"
       fill="#000000"
       id="ellipse448"
       style="stroke-width:0.0866671" />
    <path
       d="m 2.6164104,4.479541 c -0.03822,0.09334 0.2300144,0.2825345 0.6122161,0.2820146 0.3820284,6.933e-4 0.6503496,-0.1885875 0.6121293,-0.2820146 -0.036573,-0.09672 -1.1877717,-0.096894 -1.2243454,0"
       fill="#000000"
       id="path450"
       style="stroke-width:0.0866671" />
  </g>
</svg>
