<?xml version="1.0" encoding="UTF-8" standalone="no"?>
<svg
   width="120px"
   height="227px"
   viewBox="0 0 120 227"
   version="1.1"
   id="svg885"
   sodipodi:docname="sex-door.svg"
   xml:space="preserve"
   inkscape:version="1.2.1 (9c6d41e410, 2022-07-14)"
   xmlns:inkscape="http://www.inkscape.org/namespaces/inkscape"
   xmlns:sodipodi="http://sodipodi.sourceforge.net/DTD/sodipodi-0.dtd"
   xmlns:xlink="http://www.w3.org/1999/xlink"
   xmlns="http://www.w3.org/2000/svg"
   xmlns:svg="http://www.w3.org/2000/svg"
   xmlns:rdf="http://www.w3.org/1999/02/22-rdf-syntax-ns#"
   xmlns:cc="http://creativecommons.org/ns#"
   xmlns:dc="http://purl.org/dc/elements/1.1/"><sodipodi:namedview
     id="namedview887"
     pagecolor="#ffffff"
     bordercolor="#000000"
     borderopacity="0.25"
     inkscape:showpageshadow="2"
     inkscape:pageopacity="0.0"
     inkscape:pagecheckerboard="0"
     inkscape:deskcolor="#d1d1d1"
     showgrid="false"
     inkscape:zoom="1.2833832"
     inkscape:cx="-123.1121"
     inkscape:cy="47.141024"
     inkscape:window-width="1920"
     inkscape:window-height="1011"
     inkscape:window-x="-9"
     inkscape:window-y="-9"
     inkscape:window-maximized="1"
     inkscape:current-layer="svg885" /><!-- Generator: Sketch 46.2 (44496) - http://www.bohemiancoding.com/sketch --><title
     id="title848">Group 14</title><desc
     id="desc850">Created with Sketch.</desc><defs
     id="defs854"><polygon
       id="path-1"
       points="28.2452367 115 0 115 0 0.548255814 28.2452367 0.548255814 56.4904734 0.548255814 56.4904734 115" /><polygon
       id="path-3"
       points="8.7732 0.316965957 8.7732 41.9130511 9e-05 41.9130511 9e-05 0.316965957 8.7732 0.316965957" /></defs><g
     id="g883"
     stroke="none"
     stroke-width="1"
     fill="none"
     fill-rule="evenodd"><g
       id="1-panel_example_1-copy-3"
       transform="translate(-19.000000, -305.000000)"><g
         id="Group-14"
         transform="translate(19.000000, 305.000000)"><g
           id="Group-3"><rect
             id="Rectangle-3"
             fill="#8439F6"
             x="0"
             y="0"
             width="120"
             height="227" /><g
             id="noun_1258010_cc"
             transform="translate(10.000000, 10.000000)"
             fill-rule="nonzero"
             fill="#010165"><path
               d="M101,208 L101,0 L0,0 L0,208 L1.61858974,208 L101,208 Z M3.23717949,3.25355858 L97.7628205,3.25355858 L97.7628205,204.746441 L3.23717949,204.746441 L3.23717949,3.25355858 Z"
               id="Shape" /></g></g><rect
           id="Rectangle-5"
           fill="#00FFFF"
           x="13"
           y="14"
           width="95"
           height="202" /><g
           id="Page-1"
           transform="translate(36.000000, 100.000000)"><path
             d="M26,8 C23.7937377,8 22,9.79470344 22,12 L23.751697,12 C23.751697,10.759466 24.7606744,9.75093018 26,9.75093018 C27.2393256,9.75093018 28.248303,10.7603414 28.248303,12 L30,12 C30,9.79470344 28.2053865,8 26,8"
             id="Fill-1"
             fill="#010165" /><path
             d="M39.0008755,8 C36.7942206,8 35,9.79422067 35,12 L36.7513134,12 C36.7513134,10.7600701 37.7600699,9.75131349 39.0008755,9.75131349 C40.2408054,9.75131349 41.2486863,10.7600701 41.2486863,12 L42.9999997,12 C43.0008753,9.79422067 41.2066547,8 39.0008755,8"
             id="Fill-3"
             fill="#010165" /><path
             d="M33,88.8729515 C33.6209803,88.8729515 34.1267562,89.3786484 34.1267562,89.9995318 C34.1267562,90.6213516 33.6209803,91.1270485 33,91.1270485 C32.378083,91.1270485 31.8732438,90.6213516 31.8732438,89.9995318 C31.8732438,89.3786484 32.3790197,88.8729515 33,88.8729515 M33,93 C34.6550109,93 36,91.6533479 36,89.9995318 C36,88.3466521 34.6540743,87 33,87 C31.3459257,87 30,88.3466521 30,89.9995318 C30,91.6533479 31.3459257,93 33,93"
             id="Fill-5"
             fill="#010165" /><g
             id="Group-9"><mask
               id="mask-2"
               fill="white"><use
                 xlink:href="#path-1"
                 id="use864" /></mask><g
               id="Clip-8" /><path
               d="M54.7092234,46.4394961 C54.7092234,47.6233721 53.7473484,48.5861628 52.5645984,48.5861628 L12.6075984,48.5861628 C11.4248484,48.5861628 10.4629734,47.6233721 10.4629734,46.4394961 L10.4629734,23.180969 C10.4629734,21.997093 11.4248484,21.0343023 12.6075984,21.0343023 L23.2568016,21.0343023 C23.5854422,22.9411628 25.2384422,24.3996124 27.2361141,24.3996124 L37.9351922,24.3996124 C39.9328641,24.3996124 41.5876453,22.9411628 41.9162859,21.0343023 L52.5654891,21.0343023 C53.7482391,21.0343023 54.7101141,21.997093 54.7101141,23.180969 L54.7101141,46.4394961 L54.7092234,46.4394961 Z M37.3545047,91.5310853 C37.3545047,93.1901163 36.0060984,94.5398062 34.3486453,94.5398062 L30.8244422,94.5398062 C29.1669891,94.5398062 27.8185828,93.1901163 27.8185828,91.5310853 L27.8185828,50.3691085 L37.3545047,50.3691085 L37.3545047,91.5310853 Z M52.1584734,100.522481 L13.0137234,100.522481 C13.2782391,92.4867442 18.5079891,85.3745736 26.0373328,82.6956977 L26.0373328,91.5310853 C26.0373328,94.1734109 28.1846297,96.3227519 30.8244422,96.3227519 L34.3486453,96.3227519 C36.9884578,96.3227519 39.1357547,94.1734109 39.1357547,91.5310853 L39.1357547,82.6965891 C46.6642078,85.3763566 51.8939578,92.4876357 52.1584734,100.522481 L52.1584734,100.522481 Z M20.6009578,102.305426 L44.5712391,102.305426 C43.9941141,108.419147 38.8418484,113.217946 32.5860984,113.217946 C26.3312391,113.217946 21.1780828,108.418256 20.6009578,102.305426 Z M40.2036141,17.4987209 L40.2036141,20.3460853 C40.2036141,21.5977132 39.1856297,22.6166667 37.9343016,22.6166667 L27.2361141,22.6166667 C25.9856766,22.6166667 24.9685828,21.5977132 24.9685828,20.3460853 L24.9685828,17.4987209 L40.2036141,17.4987209 Z M14.5847859,11.3609302 L14.5847859,10.1298062 C14.5847859,7.72817829 16.5370359,5.77317829 18.9372703,5.77317829 L46.2358172,5.77317829 C48.6342703,5.77317829 50.5865203,7.72728682 50.5865203,10.1298062 L50.5865203,11.3609302 C50.5865203,13.7625581 48.6351609,15.7166667 46.2358172,15.7166667 L18.9363797,15.7166667 C16.5370359,15.7157752 14.5847859,13.7616667 14.5847859,11.3609302 L14.5847859,11.3609302 Z M27.2361141,2.33120155 L37.9351922,2.33120155 C38.9736609,2.33120155 39.8411297,3.03635659 40.1100984,3.99023256 L25.0629891,3.99023256 C25.3310672,3.03635659 26.1985359,2.33120155 27.2361141,2.33120155 L27.2361141,2.33120155 Z M56.4904734,24.2043798 L56.4904734,23.1818605 C56.4904734,21.0146899 54.7288172,19.2522481 52.5645984,19.2522481 L41.9848641,19.2522481 L41.9848641,17.4996124 L46.2349266,17.4996124 C49.6157391,17.4996124 52.3668797,14.7458527 52.3668797,11.3609302 L52.3668797,10.1298062 C52.3668797,6.74488372 49.6157391,3.99023256 46.2349266,3.99023256 L41.9225203,3.99023256 C41.6250516,2.04593023 39.9578016,0.548255814 37.9334109,0.548255814 L27.2361141,0.548255814 C25.2126141,0.548255814 23.5462547,2.04682171 23.2487859,3.99023256 L18.9363797,3.99023256 C15.5546766,3.99023256 12.8026453,6.74399225 12.8026453,10.1298062 L12.8026453,11.3609302 C12.8026453,14.7458527 15.5537859,17.4996124 18.9363797,17.4996124 L23.1864422,17.4996124 L23.1864422,19.2522481 L12.6075984,19.2522481 C10.4424891,19.2522481 8.68172344,21.0155814 8.68172344,23.1818605 L8.68172344,24.1277132 L-8.90625e-05,24.1277132 L-8.90625e-05,57.2557364 L-8.90625e-05,58.1472093 L-8.90625e-05,65.6239922 L7.95497344,65.6239922 L7.95497344,63.8410465 L1.78116094,63.8410465 L1.78116094,59.0386822 L7.95497344,59.0386822 L7.95497344,57.2557364 L1.78116094,57.2557364 L1.78116094,25.9097674 L8.68172344,25.9097674 L8.68172344,46.4394961 C8.68172344,48.6066667 10.4433797,50.3691085 12.6075984,50.3691085 L26.0373328,50.3691085 L26.0373328,80.8200388 C17.2851609,83.6433333 11.2217859,91.9010465 11.2217859,101.161667 L11.2467234,102.304535 L18.8197078,102.304535 C19.4030672,109.400659 25.3479891,115 32.5860984,115 C39.8242078,115 45.7691297,109.400659 46.3524891,102.304535 L53.0517703,102.304535 L53.9263641,102.218953 L53.9486297,101.160775 C53.9486297,91.9010465 47.8861453,83.6442248 39.1339734,80.8200388 L39.1339734,50.3682171 L52.5628172,50.3682171 C54.7279266,50.3682171 56.4886922,48.6048837 56.4886922,46.4386047 L56.4886922,25.9873256 L56.4904734,24.2043798 Z"
               id="Fill-7"
               fill="#010165"
               mask="url(#mask-2)" /></g><g
             id="Group-12"
             transform="translate(56.000000, 24.000000)"><mask
               id="mask-4"
               fill="white"><use
                 xlink:href="#path-3"
                 id="use870" /></mask><g
               id="Clip-11" /><polyline
               id="Fill-10"
               fill="#010165"
               mask="url(#mask-4)"
               points="9e-05 2.10330638 6.97329 2.10330638 6.97329 33.5246681 0.73449 33.5246681 0.73449 35.3119021 6.97329 35.3119021 6.97329 40.125817 0.73449 40.125817 0.73449 41.9130511 8.77329 41.9130511 8.77329 34.4182851 8.77329 33.5246681 8.77329 0.316965957 9e-05 0.316965957" /></g><path
             d="M37,36 C37,38.7613965 34.761599,41 32.0004522,41 C29.238401,41 27,38.7613965 27,36 C27,33.2386035 29.238401,31 32.0004522,31 C34.761599,31 37,33.2386035 37,36 Z"
             id="Stroke-13"
             stroke="#010165"
             stroke-width="2" /><path
             d="M41,36 C41,40.9705769 36.9705769,45 32,45 C27.0294231,45 23,40.9705769 23,36 C23,31.0294231 27.0294231,27 32,27 C36.9705769,27 41,31.0294231 41,36 Z"
             id="Stroke-15"
             stroke="#010165"
             stroke-width="2" /></g><path
           d="M15.8075564,191.382972 L16.9998893,192.589236 L29.3643935,204.909623 L30.5567264,206.115888 L27.6821243,210.385415 L27.4046486,210.124773 L25.5755147,208.299123 C25.8529904,207.288484 26.2941652,206.408456 27.110919,205.674713 C27.2577838,205.544102 27.3071257,205.316549 27.2252762,205.137176 C27.1434267,204.957223 26.9315467,204.843447 26.73534,204.876535 C26.6372366,204.892208 26.5553871,204.925296 26.4903719,204.990312 C25.6573642,205.724055 25.167428,206.620917 24.8406103,207.565379 L22.619063,205.332803 C22.8802849,204.72967 23.0602378,204.224641 23.6970388,203.751539 C23.8601574,203.637763 23.9257531,203.393375 23.8601574,203.213422 C23.7783079,203.017796 23.5821012,202.887185 23.3702212,202.920273 C23.2883716,202.920273 23.2071026,202.969034 23.1252531,203.017796 C22.455364,203.523405 22.1453806,204.110284 21.9004125,204.630986 L19.9406676,202.642797 L22.3253335,200.263356 C22.4721983,200.116491 22.5215402,199.872103 22.4234368,199.693312 C22.3253335,199.51452 22.0966192,199.415836 21.900993,199.464597 C21.8191435,199.480851 21.7378744,199.529612 21.6722787,199.595208 L19.271359,201.990903 L17.278526,200.019549 C17.8178042,199.775161 18.3895899,199.465178 18.9120337,198.797611 C19.1407481,198.520135 18.8632723,198.015106 18.5033666,198.047613 C18.3727556,198.063867 18.2583985,198.129463 18.1765489,198.226986 C17.6866127,198.863206 17.1804227,199.041998 16.5761293,199.30322 L14.354582,197.103151 C15.3019468,196.776914 16.1837159,196.271885 16.9186203,195.440619 C17.1635884,195.180558 16.9511279,194.674948 16.5918026,194.674948 C16.4611917,194.674948 16.3305807,194.72429 16.2487312,194.821813 C15.5138268,195.653079 14.6314772,196.092513 13.6190972,196.369988 L11.773129,194.528664 L11.511907,194.268023 L15.8075564,191.382972 Z M18.1597146,188.759143 C18.2415642,188.742889 18.3721751,188.759143 18.4209365,188.824158 L18.5027861,188.889173 L18.5190399,188.905427 L19.0745718,189.459798 L32.4839637,202.839584 L33.0557494,203.409629 C33.0720032,203.409629 33.0720032,203.425883 33.088257,203.442717 L33.137599,203.491478 L33.137599,203.507732 C33.2194485,203.573328 33.2357023,203.768373 33.1863604,203.833969 L31.7658936,205.969023 C31.7496398,205.969023 31.7658936,205.969023 31.7658936,205.985277 C31.7496398,205.985277 31.7328055,205.985277 31.7165517,205.969023 L31.521506,205.757143 C31.5052522,205.740889 31.4884179,205.724635 31.4721641,205.708382 L30.0186092,204.257729 L17.6541051,191.937343 L16.2818193,190.56854 C16.2818193,190.56854 16.2655655,190.552286 16.2655655,190.536032 C16.216804,190.471017 16.1674621,190.421675 16.1018664,190.389167 L15.9550016,190.226049 L15.922494,190.193541 C15.922494,190.209795 15.9062402,190.209795 15.9387478,190.177287 L18.0946994,188.775396 C18.1103727,188.759143 18.127207,188.759143 18.1597146,188.759143 L18.1597146,188.759143 Z M32.8427084,186.640923 C32.8589622,186.624669 32.9901537,186.640923 33.0226613,186.673431 C33.0557494,186.705938 33.0876765,186.738446 33.1207647,186.7547 L33.5944471,187.243475 L34.7211843,188.351636 L35.1130172,188.742889 C35.1461053,188.840412 35.2111205,188.938515 35.3092238,188.987276 L35.3092238,189.117887 L34.7699457,189.9329 L32.0097008,187.195294 L32.8427084,186.640923 Z M26.7022519,184.21272 L27.0453233,184.21272 C27.5190057,184.261482 27.9601805,184.457108 28.2701639,184.767091 L30.4917112,186.983414 L30.9491398,187.423428 L30.9653936,187.439682 L32.7451856,189.215991 L34.5093043,190.9923 C34.5255581,191.008553 34.5586462,191.024807 34.5743195,191.041061 L34.9829867,191.448567 L37.2039535,193.66489 C37.8245007,194.283696 37.9394383,195.473707 37.4489216,196.20745 L33.3169713,202.35139 L33.1370185,202.188271 L33.1207647,202.188271 L19.7276266,188.824738 L19.5645081,188.645366 L25.7386332,184.522123 C26.016109,184.343331 26.3591804,184.245228 26.7022519,184.21272 L26.7022519,184.21272 Z M56.452526,158.903219 C56.5506293,158.903219 56.6324788,158.935726 56.6974941,159.000741 L57.7754699,160.060142 C57.9060808,160.190752 57.9060808,160.402052 57.7754699,160.548917 L35.5704458,187.928457 L35.3742391,187.716577 L34.2306676,186.591581 L34.0350414,186.379701 L56.2069774,159.000161 C56.2894074,158.935726 56.3706764,158.903219 56.452526,158.903219 L56.452526,158.903219 Z M56.452526,157.990683 C56.1257083,157.990683 55.8151445,158.121294 55.5701764,158.365682 L33.3169713,185.793403 C33.218868,185.744642 33.1207647,185.728388 33.0226613,185.712134 C32.793947,185.69588 32.5495594,185.744642 32.3365184,185.891506 L31.356646,186.527146 L31.1610198,186.315266 L28.9394725,184.115197 C28.4495363,183.642676 27.7964815,183.349527 27.1265924,183.283931 C26.4735376,183.218916 25.7873947,183.3652 25.2156089,183.740199 L18.8621113,187.993472 C18.7152466,187.895949 18.5352937,187.830353 18.3559213,187.8141 C18.0778651,187.781592 17.8166432,187.846607 17.5716751,187.993472 L15.4319773,189.427871 C15.203263,189.574155 15.0233101,189.851631 15.0076368,190.128526 C14.991383,190.324152 15.0563982,190.536032 15.1707554,190.715404 L10.5320346,193.828009 C10.3195741,193.974873 10.2870665,194.333618 10.4670194,194.529244 L11.1369085,195.181138 L13.1297415,197.169327 C13.1459953,197.185581 13.1459953,197.185581 13.1622491,197.201835 L26.7678476,210.760994 L27.4209024,211.428561 C27.6171091,211.608514 27.9764343,211.575426 28.1232991,211.363546 L31.2434498,206.752108 C31.4065684,206.865885 31.6352827,206.914646 31.8309089,206.898393 C32.1089651,206.882719 32.370187,206.71902 32.5333056,206.491467 L33.9543528,204.340159 C34.2155747,203.932653 34.1993209,203.443878 33.9543528,203.052625 L38.2174945,196.71306 C38.9686527,195.57181 38.8217879,193.974873 37.8581693,193.013577 L35.636622,190.797254 L35.424742,190.602208 L36.0777968,189.624077 C36.2902573,189.314094 36.3070916,188.95593 36.1596463,188.629693 L58.4134318,161.201391 C58.9039486,160.712616 58.9039486,159.897603 58.4134318,159.408828 L57.3522904,158.349428 C57.1061613,158.10446 56.7793436,157.990683 56.452526,157.990683 L56.452526,157.990683 Z"
           id="path879"
           stroke="#010165"
           stroke-width="0.5"
           fill="#010165"
           transform="translate(34.565713, 184.767984) rotate(-21.000000) translate(-34.565713, -184.767984) " /></g></g></g><rect
     style="fill:#000000;stroke:none;stroke-width:2.86;stroke-dasharray:none"
     id="rect3125"
     width="121.76456"
     height="228.10194"
     x="-2.2038834"
     y="-1.1019417" /><rect
     style="fill:#ff0000;stroke-width:2.86;stroke:#ffffff;stroke-dasharray:none"
     id="rect1650"
     width="99.736382"
     height="206.87508"
     x="9.7398815"
     y="10.908667" /><metadata
     id="metadata5355"><rdf:RDF><cc:Work
         rdf:about=""><dc:title>Group 14</dc:title></cc:Work></rdf:RDF></metadata><path
     style="fill:#000000;stroke-width:0.292437"
     d="m 21.812729,215.26379 -0.270847,-0.51176 -1.947603,-5.99497 -1.947603,-5.99496 -0.690851,-2.92438 -0.690851,-2.92437 -0.643777,-4.53278 -0.643776,-4.53278 0.165254,-2.77816 0.165255,-2.77815 0.469759,-2.92438 0.469759,-2.92437 0.70308,-2.78613 0.70308,-2.78612 0.764375,-2.03909 0.764375,-2.0391 1.44615,-2.94601 1.44615,-2.94602 1.529466,-2.35636 1.529466,-2.35636 2.258233,-2.64909 2.258234,-2.6491 1.76975,-1.4728 1.769746,-1.4728 -1.066212,-0.44549 -1.066212,-0.44549 h -0.206587 -0.206586 l -1.347818,-0.89276 -1.347816,-0.89275 -0.468693,-1.22742 -0.468693,-1.22741 h -2.985735 -2.985735 l -0.941063,-0.51444 -0.941063,-0.51443 -0.718525,-0.7749 -0.718525,-0.7749 -0.324837,-1.86535 -0.324836,-1.86535 0.184435,-0.29842 0.184435,-0.29842 0.08089,-2.06272 0.08089,-2.06272 0.27426,-0.1867 0.274259,-0.18671 0.81316,-1.46219 0.813161,-1.46219 0.969895,-2.33949 0.969896,-2.3395 0.899112,-2.76125 0.899111,-2.76124 -0.474069,-0.52384 -0.47407,-0.52384 0.602902,-1.68635 0.602901,-1.68636 0.476345,-3.36303 0.476344,-3.36303 0.298814,-1.1333 0.298814,-1.1333 0.766911,-1.64485 0.766912,-1.64486 1.813731,-1.77174 1.813733,-1.77174 -0.294253,-0.525798 -0.294254,-0.525799 0.644807,-0.872151 0.644807,-0.872148 -0.61284,-0.429251 -0.612844,-0.429251 V 93.61628 92.851684 L 30.442788,92.316892 30.926769,91.7821 H 30.589007 30.251244 L 29.66637,91.197226 29.081495,90.612351 v -0.826338 -0.826334 l 0.71307,-0.669895 0.713071,-0.669895 -0.859289,-0.723046 -0.85929,-0.723046 v -1.275895 -1.275893 l 1.018262,-0.988924 1.018261,-0.988921 -0.424087,-0.560452 -0.424084,-0.560452 -0.0093,-0.753226 -0.0093,-0.753227 0.657984,-0.601644 0.657984,-0.601643 0.950422,-0.480374 0.950422,-0.480373 v -0.294105 -0.294106 l -0.421113,-0.161596 -0.421113,-0.161596 -0.46809,-0.714397 -0.46809,-0.714397 0.477969,-0.796344 0.477968,-0.796344 1.306993,-0.973596 1.306997,-0.973597 -0.457103,-0.69763 -0.457106,-0.697629 V 69.008268 68.4391 l 0.877914,-0.738716 0.877915,-0.738717 1.136555,-0.638779 1.136552,-0.638779 -0.14976,-1.116542 -0.149757,-1.116542 0.986555,-0.607065 0.986555,-0.607064 1.09664,-0.334213 1.096641,-0.334213 v -0.824282 -0.824281 l 0.657984,-0.412265 0.657984,-0.412266 1.608406,-0.507674 1.608405,-0.507674 0.747096,-0.695208 0.747096,-0.695208 h 1.366007 1.366007 l 0.95749,-0.583782 0.95749,-0.583781 1.470226,-0.0011 1.470229,-0.0011 0.655861,0.459382 0.655858,0.459383 0.944506,-0.298211 0.944506,-0.298211 2.244351,0.07717 2.244352,0.07717 0.448716,0.3724 0.448716,0.372401 0.838488,-0.184162 0.838486,-0.184163 0.837105,0.318267 0.837107,0.318267 0.381833,0.545146 0.381836,0.545145 1.122757,0.189689 1.122758,0.189689 0.925919,0.563083 0.925915,0.563084 v 0.293067 0.293067 l 1.14941,0.725592 1.149414,0.725592 0.75143,0.810385 0.751432,0.810384 v 0.507662 0.507662 l 1.053249,0.957513 1.053251,0.957514 -0.138162,1.315968 -0.138162,1.315969 -0.110884,0.415498 -0.110886,0.415499 1.462187,0.545497 1.462187,0.545498 0.534336,0.63457 0.534336,0.634571 -0.139157,0.597714 -0.139156,0.597714 -0.38338,0.942998 -0.383382,0.942997 1.260034,1.078542 1.26003,1.078541 -0.191186,1.785285 -0.19119,1.785286 1.03953,0.920329 1.039527,0.920327 v 0.734825 0.734822 l -0.765121,0.601845 -0.765125,0.601848 0.911343,1.03796 0.911341,1.037959 v 0.258345 0.258345 l -0.182285,0.47503 -0.182288,0.475029 -1.133681,0.578363 -1.133683,0.578362 v 0.315382 0.315385 l 0.897686,0.838567 0.89769,0.838564 -0.09349,0.804613 -0.09348,0.804615 -0.945991,0.6353 -0.945991,0.635299 0.434225,0.360377 0.434226,0.360373 v 0.684997 0.684997 l -0.548347,0.293466 -0.548343,0.293467 -0.155372,0.594136 -0.155369,0.59414 h 0.221448 0.221448 l 1.897404,1.43637 1.897404,1.43637 0.903109,1.41489 0.903111,1.4149 0.591194,2.3395 0.591194,2.3395 0.306934,2.48911 0.306931,2.48911 0.728882,3.21342 0.728883,3.21341 0.0026,0.36555 0.0026,0.36555 -0.562875,0.56287 -0.562875,0.56288 0.380046,1.26486 0.380046,1.26486 0.34717,2.63193 0.347167,2.63194 0.420534,0.84913 0.420536,0.84913 v 0.51906 0.51906 l 0.382245,0.38643 0.382245,0.38644 0.463242,1.31597 0.463238,1.31596 0.887647,2.09766 0.887647,2.09766 0.442645,0.6805 0.442642,0.68049 1.027683,2.92438 1.027684,2.92437 1.347205,4.48514 1.34721,4.48513 1.42205,3.76804 1.42205,3.76804 1.1407,2.27457 1.14069,2.27458 1.83203,2.43242 1.83203,2.43243 0.29147,0.9306 0.29147,0.93061 0.0101,2.92437 0.0101,2.92437 -0.37375,2.3395 -0.37375,2.3395 -1.19681,1.19948 -1.1968,1.19948 -1.71655,0.63726 -1.71655,0.63726 -0.85561,-0.37455 -0.85561,-0.37455 0.12204,-0.47302 0.12205,-0.47302 -0.43806,0.0344 -0.43806,0.0344 -0.53333,-2.23216 -0.53332,-2.23217 -0.57003,-1.71574 -0.570017,-1.71574 -0.195211,-4.24034 -0.195211,-4.24034 -0.606015,-1.90084 -0.606015,-1.90085 -0.678405,-1.35558 -0.678405,-1.35558 -4.535392,-6.39403 -4.535441,-6.39401 -1.950879,-4.38656 -1.950882,-4.38656 -1.886578,-3.65547 -1.886581,-3.65547 -0.129257,-0.13127 -0.129257,-0.13128 -1.33632,1.39457 -1.336319,1.39458 -0.481989,0.20842 -0.48199,0.20842 -0.948573,0.57534 -0.94857,0.57535 -0.0018,0.16207 -0.0018,0.16207 0.855286,1.34865 0.855286,1.34865 3.366262,2.37234 3.366261,2.37235 2.972395,3.13543 2.972399,3.13543 1.547877,2.3395 1.547877,2.3395 1.322466,2.64982 1.322469,2.64982 0.752234,1.85126 0.752234,1.85126 0.626056,2.22498 0.626055,2.22498 0.395452,2.77816 0.395451,2.77815 0.0057,3.20502 0.0057,3.20502 -0.462624,3.81348 -0.462622,3.81348 -1.121608,4.99103 -1.121609,4.99102 -0.890703,3.051 -0.890703,3.051 -0.906664,2.63194 -0.906667,2.63194 -0.288326,0.953 -0.288325,0.953 -15.411616,-0.0757 -15.411781,-0.0757 -0.210377,-2.48572 -0.210376,-2.48571 -0.380605,-4.679 -0.380601,-4.679 -0.516313,3.07059 -0.516313,3.07059 -0.917361,4.16724 -0.917362,4.16723 H 38.837736 22.083575 Z m 33.692541,-4.09412 0.788312,-3.43614 0.591268,-3.9479 0.59127,-3.94791 0.458887,-2.63194 0.458887,-2.63193 0.02755,-5.70253 0.02755,-5.70253 -0.894993,-2.53168 -0.894996,-2.53168 -1.506383,-2.21047 -1.506383,-2.21048 v -0.29222 -0.29221 l -0.839828,-0.9606 -0.839827,-0.96059 -1.16572,-2.3395 -1.165717,-2.3395 -0.750813,-1.75463 -0.750815,-1.75462 -0.925465,-2.47152 -0.925468,-2.47153 -1.1722,-2.33139 -1.172203,-2.3314 -0.622246,-0.89961 -0.622245,-0.89961 -1.017349,-1.0973 -1.017346,-1.09731 -0.532961,0.16916 -0.532961,0.16915 -0.819191,-0.87695 -0.81919,-0.87694 -1.075845,-0.20183 -1.075845,-0.20183 -0.948143,0.7272 -0.948147,0.72719 -1.832945,1.64007 -1.832948,1.64006 -1.642209,1.83295 -1.642209,1.83294 -1.143686,1.54034 -1.143685,1.54035 -1.726851,3.10527 -1.726851,3.10528 -1.05319,2.71813 -1.053189,2.71813 -0.572446,1.99425 -0.572446,1.99424 -0.759965,4.24035 -0.759966,4.24034 0.149895,4.679 0.149895,4.679 0.601747,3.01369 0.601748,3.0137 0.612946,2.25017 0.612947,2.25018 1.790619,5.77564 1.79062,5.77564 h 15.981208 15.981208 l 0.788311,-3.43614 z m -9.286206,-44.41725 -2.601959,-2.50327 -2.417805,-1.15432 -2.417803,-1.15432 -0.358893,-0.43244 -0.358894,-0.43244 0.144759,-0.14476 0.14476,-0.14476 2.688924,1.32833 2.688923,1.32832 1.318645,1.21549 1.318647,1.21548 1.474589,1.70214 1.474589,1.70214 -0.248264,-0.0112 -0.248262,-0.0112 -2.601956,-2.50327 z m 43.795899,46.53742 0.478387,-1.31597 0.43141,-1.24286 0.431409,-1.24285 1.031743,-3.61238 1.031739,-3.61237 1.013775,-4.45856 1.013776,-4.45857 0.510832,-3.62656 0.510833,-3.62656 -0.01459,-4.53278 -0.01459,-4.53278 -0.51553,-2.63193 -0.515526,-2.63194 -0.840228,-2.63194 -0.840231,-2.63193 -1.887037,-3.81871 -1.887037,-3.8187 -1.739433,-2.32248 -1.739435,-2.32248 -2.304392,-2.35063 -2.304395,-2.35063 -1.93798,-1.37795 -1.93798,-1.37795 H 77.530737 77.07099 l -0.709959,0.95042 -0.709962,0.95043 -1.227269,2.77815 -1.227267,2.77816 -1.413221,3.65546 -1.413221,3.65547 -1.479418,3.47381 -1.47942,3.4738 -1.594208,2.37494 -1.594211,2.37495 -1.206743,2.74672 -1.20674,2.74671 -0.837499,2.9826 -0.837497,2.9826 -0.343064,5.44134 -0.343065,5.44135 0.501729,8.8613 0.501729,8.8613 -0.03642,0.65799 -0.03642,0.65798 h 14.578865 14.578864 l 0.478387,-1.31597 z m -18.634398,-50.22612 1.139889,-1.24286 1.09557,-2.19328 1.09557,-2.19328 0.587255,-0.69941 0.587256,-0.69942 0.160015,0.16002 0.160016,0.16002 -0.755936,1.19748 -0.755936,1.19748 -0.699419,1.58151 -0.69942,1.58152 -1.232954,1.19654 -1.232951,1.19654 H 70.5351 70.240679 Z m 32.983295,24.95876 -0.13988,-0.13988 -0.5048,0.52704 -0.5048,0.52704 0.64468,-0.38716 0.64469,-0.38715 z m 3.9028,-1.31466 0.89215,-1.01611 0.24459,-1.99255 0.2446,-1.99256 -0.0193,-2.77815 -0.0193,-2.77816 -0.18781,-0.73109 -0.1878,-0.7311 -2.19593,-2.90625 -2.19593,-2.90625 -1.48617,-3.37655 -1.48617,-3.37655 -1.42323,-4.24495 -1.423226,-4.24494 -1.790641,-5.55631 -1.790641,-5.55631 -1.610783,-3.21681 -1.610786,-3.21681 -0.988099,-2.77816 -0.9881,-2.77815 -0.498907,-3.0706 -0.498909,-3.07059 -0.13956,-0.95042 -0.13956,-0.95042 h -1.156982 -1.156979 l -0.56565,0.30272 -0.56565,0.30273 v 0.66773 0.66772 l 0.454035,1.52891 0.454036,1.5289 -0.183803,0.5791 -0.183803,0.57911 -1.190761,1.37582 -1.190761,1.37582 -0.392638,0.93971 -0.392638,0.93971 -0.405149,0.23543 -0.405149,0.23543 -0.800471,0.95882 -0.800469,0.95883 1.099477,2.25799 1.09948,2.25798 0.650056,0.87731 0.650059,0.87732 2.242642,4.99162 2.242644,4.99162 1.47248,2.17309 1.472481,2.1731 1.096339,1.46218 1.096339,1.46219 1.972216,2.77816 1.972212,2.77815 1.000157,2.04706 1.000156,2.04707 0.424678,2.19328 0.424678,2.19328 0.29534,4.24034 0.29534,4.24034 0.57319,1.75463 0.57319,1.75462 0.0311,-0.73109 0.0312,-0.7311 0.21484,0.33692 0.21486,0.33691 0.019,-2.67641 0.019,-2.67641 0.36189,-1.25792 0.36189,-1.25792 0.46013,-0.17657 0.46012,-0.17656 0.75555,0.45844 0.75555,0.45844 1.1085,1.83326 1.1085,1.83325 -0.0127,1.18985 -0.0127,1.18985 -0.24507,1.26816 -0.24506,1.26817 -1.0905,1.11677 -1.0905,1.11678 0.5441,0.12275 0.54409,0.12276 0.47166,-0.23013 0.47166,-0.23013 0.89215,-1.0161 z m -4.18643,0.51903 0.47503,-0.18229 0.61419,-1.20392 0.6142,-1.20392 v -1.4803 -1.4803 l -0.35574,-1.15451 -0.35573,-1.15451 -0.3064,-0.8042 -0.30639,-0.8042 h -0.23904 -0.23904 l -0.16192,1.24286 -0.16191,1.24286 -0.0753,3.58275 -0.0753,3.58276 0.0492,-3e-4 0.0492,-2.9e-4 0.47503,-0.18228 z m -1.69442,-1.7673 -0.19496,-0.19496 v 0.38992 0.38991 l 0.19496,-0.19495 0.19495,-0.19496 z m 4.48687,-1.1336 0.24414,-1.08245 -0.2389,0.25508 -0.23889,0.25508 -0.21119,1.02353 -0.21119,1.02354 0.20595,-0.19617 0.20595,-0.19615 z m -45.629121,-7.06063 0.0061,-0.0547 -0.950421,0.15297 -0.950422,0.15296 -1.209547,-0.4181 -1.209545,-0.41811 0.967442,2.01871 0.967441,2.01872 0.196337,1.1621 0.196333,1.1621 0.990141,-2.86095 0.99014,-2.86095 0.0061,-0.0547 z m 45.458141,3.07668 -0.50825,-1.12708 -0.1296,0.12961 -0.12961,0.1296 0.29532,0.97002 0.29532,0.97001 0.22929,0.87732 0.2293,0.87731 0.11323,-0.84985 0.11324,-0.84985 z m -45.094954,-4.66499 0.514122,-0.27515 0.475945,-0.94175 0.475945,-0.94176 1.627098,-2.46428 1.627098,-2.46429 0.851757,-2.06849 0.851759,-2.06849 2.325465,-5.81174 2.325462,-5.81173 0.73739,-1.45517 0.737392,-1.45517 -0.09898,-0.099 -0.09898,-0.099 -0.948498,1.82939 -0.948497,1.8294 -1.392224,1.72815 -1.392227,1.72815 -1.446978,1.09363 -1.44698,1.09362 -1.998459,0.74076 -1.998459,0.74076 H 59.975 57.564102 l -2.356949,-0.68523 -2.356952,-0.68524 -1.724311,-1.04746 -1.72431,-1.04746 -2.101888,-2.1421 -2.101888,-2.1421 -0.649062,-0.87731 -0.649065,-0.87732 -1.194797,-1.26535 -1.194796,-1.26536 -0.584875,-0.28628 -0.584875,-0.28628 1.086703,0.91405 1.086706,0.91405 1.047842,1.42744 1.047844,1.42745 1.178856,2.13452 1.178853,2.13451 1.462953,3.91451 1.462954,3.91451 1.401401,2.95777 1.401401,2.95777 1.185883,1.60841 1.185883,1.6084 0.624942,0.80109 0.624942,0.80109 1.369414,0.43067 1.369417,0.43067 1.018147,-0.16107 1.018147,-0.16108 z m 3.763505,-17.22473 1.28945,-0.64985 1.216423,-0.98618 1.216423,-0.98619 1.027171,-1.39929 1.027172,-1.39928 1.066087,-2.03894 1.066083,-2.03894 0.849271,-2.1794 0.84927,-2.17941 -0.380891,-0.45253 -0.380894,-0.45253 -0.773392,-1.35579 -0.773391,-1.35579 -0.02989,-0.83749 -0.02989,-0.83749 0.321324,-2.02598 0.321322,-2.02599 -0.371726,-0.23593 -0.371726,-0.23592 -1.715049,-0.004 -1.715049,-0.004 -1.501763,-0.79692 -1.501762,-0.79692 -0.904916,-0.66527 -0.904915,-0.66527 H 63.98911 63.713231 l -1.012483,-0.84878 -1.012485,-0.84879 0.156275,-0.16043 0.156276,-0.16043 2.055323,1.08232 2.055326,1.08233 1.158292,0.63013 1.158295,0.63013 1.455323,0.23096 1.455324,0.23095 1.69199,-0.0488 1.69199,-0.0488 1.361911,-0.46238 1.361907,-0.46238 1.625101,-0.88584 1.625098,-0.88584 0.830312,-0.77999 0.830308,-0.77999 0.437434,-0.83781 0.437437,-0.8378 -0.255971,-0.25597 -0.255967,-0.25597 -3.936152,-0.60537 -3.936149,-0.60536 -3.947905,0.18644 -3.947905,0.18645 -3.947905,0.44206 -3.947905,0.44206 -5.263873,-0.0842 -5.263874,-0.0842 -2.19328,0.34619 -2.193281,0.34619 -1.52144,0.27702 -1.521444,0.27702 -1.320074,0.58393 -1.320074,0.58393 -1.398825,0.95424 -1.398828,0.95424 -0.382128,0.5287 -0.38213,0.52871 h -0.422072 -0.422075 v 0.24146 0.24146 l 0.657984,0.60164 0.657984,0.60165 0.877312,0.43933 0.877312,0.43933 2.292049,0.50725 2.292048,0.50725 1.217201,-0.19422 1.2172,-0.19423 0.438656,-0.0808 0.438656,-0.0808 0.584875,-0.22244 0.584875,-0.22244 0.671743,-0.26864 0.671747,-0.26865 h 0.451362 0.451366 l 1.536495,-1.31267 1.536495,-1.31267 0.156931,0.15693 0.156934,0.15693 1.190466,-1.39273 1.190468,-1.39273 0.16652,0.16652 0.166523,0.16652 -2.162499,2.47352 -2.162496,2.47352 -1.951048,0.93196 -1.951049,0.93196 h -0.264913 -0.264914 l -1.474176,0.31616 -1.474177,0.31615 0.290823,0.54341 0.290826,0.54341 -0.29323,0.18123 -0.293227,0.18122 v 0.72836 0.72836 l -0.475073,0.93589 -0.475074,0.9359 -0.993202,1.2264 -0.993202,1.2264 0.1802,1.1131 0.180197,1.1131 1.138725,0.7148 1.138725,0.71479 2.031287,2.3558 2.031288,2.3558 1.846643,1.80373 1.84664,1.80372 1.902995,1.03537 1.902999,1.03538 1.60625,0.45199 1.606253,0.45199 3.389549,-0.11767 3.389548,-0.11768 1.28945,-0.64985 z m -7.610288,-6.09901 -0.293414,-0.54825 -0.190699,-1.19257 -0.190701,-1.19257 0.186958,-0.7449 0.186958,-0.7449 h 0.433085 0.433085 v 0.56762 0.56762 l 0.275541,0.17029 0.27554,0.17029 0.19672,1.31181 0.196717,1.31181 -0.361848,0.436 -0.361847,0.436 h -0.246341 -0.24634 z m 8.9065,-4.27697 -0.255652,-1.16975 0.01696,-1.31597 0.01696,-1.31597 0.756728,-2.30844 0.756732,-2.30844 -0.154746,-0.25039 -0.154744,-0.25038 h 0.455913 0.455916 v 0.36648 0.36647 l -0.612247,2.04614 -0.612247,2.04613 -0.206967,2.63193 -0.206969,2.63194 -0.255652,-1.16975 z m -17.386232,-4.33268 -0.02056,-1.99317 -0.302726,-0.56565 -0.302728,-0.56565 h 0.292438 0.292437 l 0.302728,0.56565 0.302726,0.56565 -0.02056,1.4083 -0.02056,1.4083 -0.25133,0.58488 -0.251329,0.58487 -0.02056,-1.99318 z m 25.129062,5.50243 v -0.14622 h -0.146219 -0.146219 v 0.14622 0.14622 h 0.146219 0.146219 z m 2.076428,-3.07059 h 0.334686 l -0.364052,-0.43866 -0.364053,-0.43865 h -0.18799 -0.187988 l -0.575233,1.53529 -0.575233,1.5353 -0.109919,0.29244 -0.109921,0.29243 0.902509,-1.38907 0.902508,-1.38908 z m -37.162828,1.03955 -0.302711,-0.79619 0.171953,-0.27823 0.171953,-0.27822 -0.754737,-2.18555 -0.754734,-2.18554 -0.01284,-0.80161 -0.01284,-0.80162 -0.415138,-1.1658 -0.415139,-1.16581 0.301445,-0.29638 0.301441,-0.29638 0.420341,0.56953 0.420341,0.56954 -0.171751,0.54114 -0.171752,0.54114 0.288577,0.35151 0.288578,0.35151 0.134416,0.7311 0.134415,0.73109 0.03983,-0.95042 0.03983,-0.95042 h 0.265898 0.265899 l -0.558336,-1.15562 -0.558336,-1.15563 v -0.45278 -0.45278 h -0.411395 -0.411398 l -1.926701,-0.86446 -1.926703,-0.86445 -0.494219,-1.03639 -0.49422,-1.03639 H 30.894069 29.01328 l 0.187366,-0.65798 0.187367,-0.65799 0.173927,-0.79518 0.17393,-0.79518 -0.180948,-0.47154 -0.180949,-0.47155 -1.04228,0.64417 -1.042281,0.64416 -2.686317,0.20695 -2.686317,0.20694 -0.877312,0.46094 -0.877312,0.46094 -0.731094,0.78385 -0.731093,0.78385 -0.05944,1.51032 -0.05944,1.51033 -0.168224,1.60841 -0.168224,1.6084 0.373884,0.7029 0.373883,0.70291 0.731094,0.53803 0.731093,0.53803 1.661083,0.33063 1.661084,0.33063 1.332906,-0.19988 1.332906,-0.19988 0.407263,-0.40726 0.407262,-0.40727 0.013,-3.85228 0.013,-3.85228 0.250947,-0.25095 0.250946,-0.25094 0.06377,1.46556 0.06377,1.46556 0.257045,1.14403 0.257046,1.14402 -0.242223,2.40274 -0.242222,2.40275 0.406808,0.97363 0.406808,0.97363 1.389863,0.88142 1.389861,0.88142 h 0.209309 0.209307 l -0.05909,-0.36554 -0.05908,-0.36555 -0.938569,-0.92793 -0.938569,-0.92792 v -1.59435 -1.59434 l -0.182773,-0.91387 -0.182773,-0.91387 h 0.258988 0.258988 l 1.020426,2.11268 1.020425,2.11269 0.799416,0.57278 0.799418,0.57278 0.190845,-0.19085 0.190844,-0.19084 -0.599447,-1.39798 -0.599449,-1.39798 -0.204031,-1.09664 -0.204031,-1.09664 h 0.292113 0.292113 l 0.946807,2.34881 0.946807,2.34881 0.529025,0.28313 0.529025,0.28313 h 0.136282 0.136284 l -0.550703,-2.12018 -0.550701,-2.12017 -0.005,-0.65798 -0.005,-0.65798 h 0.27273 0.27273 l 0.146579,0.51176 0.146578,0.51177 0.897298,2.95885 0.8973,2.95886 0.544007,0.69661 0.544009,0.69661 0.213149,0.68002 0.213146,0.68003 0.127699,-0.1277 0.127701,-0.1277 z m -3.545684,-1.30549 0.993188,-0.74603 -0.970647,-0.19852 -0.970647,-0.19852 -0.959393,0.15569 -0.959397,0.15569 -0.890878,-0.89088 -0.890878,-0.89088 v 0.25372 0.25372 l 1.462043,1.25908 1.462044,1.25909 1.43e-4,0.3828 1.44e-4,0.38281 0.365546,-0.21587 0.365547,-0.21587 z m -2.991506,0.65585 -0.194959,-0.19495 -0.19496,0.19495 -0.194956,0.19496 h 0.389916 0.389915 z m 4.678998,0 -0.194959,-0.19495 -0.194959,0.19495 -0.194956,0.19496 h 0.389915 0.389916 z m 3.281019,-5.22026 0.697823,-1.02466 0.218226,-1.19337 0.218223,-1.19338 -0.145953,-0.55812 -0.14595,-0.55812 h -1.009131 -1.009131 l 0.21073,0.65798 0.210728,0.65799 0.08466,1.02353 0.08467,1.02353 -0.244601,1.09664 -0.244603,1.09664 0.188245,-0.002 0.188242,-0.002 z m 34.979541,-2.71811 0.877312,-0.69004 1.829883,-1.77609 1.829881,-1.77609 -0.140636,-0.14064 -0.140639,-0.14064 -1.178321,1.06454 -1.178321,1.06455 -0.510923,2.9e-4 -0.510924,2.9e-4 -1.389077,1.41551 -1.389078,1.41551 v 0.52071 0.52071 l 0.511765,-0.39442 0.511766,-0.39442 0.877312,-0.69004 z m -0.825428,-1.8864 0.532991,-0.66173 1.462187,-1.15137 1.462187,-1.15138 0.272472,-0.22861 0.272473,-0.22861 -1.003566,0.32856 -1.003566,0.32857 -1.16975,0.45012 -1.16975,0.45013 -0.365546,0.44161 -0.365547,0.44161 v 0.82142 0.82142 h 0.271212 0.271213 z m 5.650645,-2.99373 v -0.14622 H 80.40426 80.258041 v 0.14622 0.14622 h 0.146219 0.146218 z m 0.731094,-0.43866 0.180735,-0.29244 h -0.146219 -0.146219 l -0.180735,0.29244 -0.180735,0.29244 h 0.146219 0.146219 z m -0.294508,-1.45884 0.178667,-0.28908 -0.453845,0.17415 -0.453845,0.17416 v 0.11493 0.11493 h 0.275178 0.27518 z m -45.346189,-1.89792 2.359961,-1.60215 1.883183,-0.73735 1.883185,-0.73736 h 0.656604 0.656607 l 0.82324,-0.31626 0.823241,-0.31626 8.919341,-0.26664 8.919341,-0.26665 3.509249,-0.43451 3.509249,-0.4345 3.439289,-0.006 3.439286,-0.006 2.848118,0.44956 2.848115,0.44956 0.952667,0.30495 0.952665,0.30496 0.29907,0.55881 0.299067,0.55882 -0.464075,0.89742 -0.464075,0.89742 -1.041015,1.15228 -1.041016,1.15228 h 0.461788 0.461788 l 1.136221,-1.68151 1.136219,-1.68152 0.148658,-0.43865 0.148654,-0.43866 -0.271317,-0.73109 -0.271318,-0.7311 -0.258687,-2.26573 -0.258687,-2.26573 -1.226997,-3.79781 -1.226997,-3.79781 -2.023138,-2.66477 -2.02314,-2.66477 0.123902,-0.1239 0.123903,-0.1239 1.142035,1.24884 1.142036,1.24884 0.728456,0.93406 0.728458,0.93407 0.05525,-1.66516 0.05525,-1.66516 0.291759,-0.73109 0.291759,-0.7311 0.05314,1.90085 0.05314,1.90084 0.204312,0.87731 0.204308,0.87731 0.506776,-1.16727 0.506774,-1.16727 0.284682,-1.31845 0.284685,-1.31844 0.321079,-0.8042 0.321078,-0.80421 h 0.239208 0.239208 l -0.404476,1.24286 -0.404479,1.24286 -0.304269,2.07346 -0.30427,2.07346 -0.40635,0.99713 -0.406351,0.99714 0.510026,1.16975 0.510028,1.16975 0.503656,-1.7032 0.503659,-1.7032 0.155911,0.15591 0.155913,0.15591 -0.381324,2.34809 -0.381324,2.34809 0.170936,0.17094 0.170935,0.17093 1.124062,-0.31212 1.124062,-0.31213 0.901681,-0.002 0.901684,-0.002 0.149833,-0.14984 0.149831,-0.14983 -0.52921,-3.28631 -0.529209,-3.2863 -0.489885,-2.77816 -0.489888,-2.77815 -0.647799,-1.47535 -0.647799,-1.47535 -1.577901,-1.38611 -1.577899,-1.3861 -1.462187,-0.70085 -1.462187,-0.70084 -4.278333,-0.60494 -4.278333,-0.6047 h -0.766212 -0.766212 v 0.25358 0.25358 l -1.096641,0.72018 -1.09664,0.72018 -0.997843,0.34353 -0.997843,0.34353 -0.112007,-0.11201 -0.112006,-0.11201 1.256068,-0.73879 1.256068,-0.7388 0.707877,-0.75777 0.707877,-0.757764 -0.123002,-0.108579 -0.123002,-0.108576 -1.101351,-0.19915 -1.101352,-0.199147 0.03934,0.233461 0.03934,0.233465 -0.03463,0.345178 -0.03463,0.345182 -2.851265,0.93097 -2.851265,0.93097 -2.19328,0.39516 -2.193281,0.39516 -3.243444,0.0102 -3.243443,0.0102 -1.429402,-0.43019 -1.429402,-0.43019 -0.283969,0.28397 -0.283968,0.28396 h -1.111262 -1.111262 v 0.28852 0.28851 l 1.09664,0.46194 1.09664,0.46194 1.608406,0.4246 1.608406,0.4246 3.947905,0.1424 3.947905,0.1424 0.292437,0.0277 0.292438,0.0277 -0.731094,0.23414 -0.731094,0.23413 -3.802616,0.0292 -3.802616,0.0292 -1.970455,-0.5635 -1.970452,-0.5635 -0.255353,0.45629 -0.255354,0.45629 -0.898648,-0.13189 -0.898652,-0.1319 -0.170105,0.67776 -0.170105,0.67776 h -0.854484 -0.854482 l -0.211634,-0.34244 -0.211637,-0.34243 -0.234856,0.63487 -0.234854,0.63487 h -0.830844 -0.830841 l -0.539228,-0.39429 -0.539225,-0.39429 0.223899,-0.36228 0.223901,-0.36228 0.551871,0.14432 0.55187,0.14432 v -0.83023 -0.83023 l 0.606024,-0.19234 0.606024,-0.19235 -0.159165,-0.41477 -0.159165,-0.41478 0.276997,-0.72855 0.276996,-0.72856 h 0.445894 0.445894 V 99.51704 99.3563 l -0.436585,-0.84426 -0.436589,-0.844271 0.188435,-0.491046 0.188432,-0.491046 -3.187986,0.120484 -3.187986,0.120484 -1.315968,0.602585 -1.315968,0.60258 -1.607596,1.21695 -1.607595,1.21694 -1.09257,1.62535 -1.092571,1.62534 -0.591863,1.91623 -0.591863,1.91623 -0.293108,3.34351 -0.293107,3.34351 0.368324,0.35884 0.368326,0.35884 1.434922,1.08813 1.434922,1.08814 0.120775,-0.12078 0.120775,-0.12077 -0.622453,-1.12498 -0.622453,-1.12498 -0.679975,-1.16975 -0.679975,-1.16975 -0.198811,-1.12543 -0.198812,-1.12542 0.303142,0.18735 0.303142,0.18735 0.300304,1.11524 0.300304,1.11525 1.024743,1.34206 1.024743,1.34207 0.322325,0.82026 0.322324,0.82027 0.390972,-1.46219 0.390971,-1.46219 -0.171067,-2.94967 -0.17107,-2.94967 0.200986,-1.07134 0.200986,-1.07135 h 0.318936 0.318935 l -0.185549,1.35373 -0.185548,1.35372 0.308404,1.9362 0.308405,1.9362 0.234023,0.23578 0.23402,0.23579 0.803071,-1.69611 0.803068,-1.6961 0.154536,-0.95229 0.154532,-0.95229 h 0.292207 0.292206 l -0.148491,1.31743 -0.148494,1.31742 -1.199917,2.55737 -1.199918,2.55737 0.505309,-0.73109 0.505308,-0.7311 1.316834,-1.42563 1.316837,-1.42564 1.754624,-1.24447 1.754625,-1.24446 1.535296,-0.77097 1.535297,-0.77096 -0.0068,0.22426 -0.0068,0.22425 -2.008124,1.12925 -2.008121,1.12926 -1.653365,1.29767 -1.653365,1.29766 -0.969064,1.52099 -0.969065,1.52098 -1.076985,1.96646 -1.076989,1.96646 -0.177623,2.91558 -0.177624,2.91557 0.393182,2.65365 0.393182,2.65365 1.331515,-1.28619 1.331517,-1.28618 1.307031,-0.92722 1.307032,-0.92722 1.324905,-0.59972 1.324905,-0.59972 2.014865,-0.69804 2.014861,-0.69804 2.330893,-0.44216 2.330896,-0.44216 h 0.113913 0.113913 v 0.29243 0.29244 H 47.127863 46.45821 l -1.742956,0.4457 -1.742956,0.44569 -2.693167,1.03459 -2.693167,1.03459 -1.693394,1.31064 -1.693394,1.31063 -1.119395,1.30321 -1.119392,1.3032 h 0.660277 0.660274 l 2.359961,-1.60214 z m 27.104365,-27.6265 1.641849,-0.51643 0.332103,-0.20525 0.332104,-0.20525 v 0.30577 0.30577 l -1.059244,0.44258 -1.059246,0.44258 -0.914706,-0.0267 -0.914709,-0.0267 1.641849,-0.51643 z m -42.00858,27.89257 0.700147,-0.45875 2.433266,-0.41473 2.433266,-0.41472 1.419991,-0.65318 1.419992,-0.65317 -0.177133,-1.29232 -0.177132,-1.29232 -0.005,-1.78691 -0.005,-1.78692 -2.115207,-1.16975 -2.115207,-1.16975 -0.146219,-0.0696 -0.146219,-0.0696 -0.854219,2.84773 -0.85422,2.84773 -1.391824,2.99748 -1.391824,2.99749 h 0.136161 0.136162 l 0.700147,-0.45876 z m 67.4903,-8.7969 1.681515,-0.18566 -0.0045,-0.47011 -0.0045,-0.4701 -0.214848,-0.3319 -0.214851,-0.3319 -1.315968,0.21875 -1.315969,0.21874 -0.804203,0.32524 -0.804202,0.32525 v 0.62622 0.62622 l 0.657984,-0.18254 0.657984,-0.18254 1.681515,-0.18567 z m -58.853028,-2.00318 v -1.02354 h -0.312857 -0.312856 l -1.368659,-0.92036 -1.368658,-0.92037 -0.801152,-0.73983 -0.801153,-0.73983 -0.107263,0.1249 -0.107263,0.1249 -0.179329,0.9425 -0.179327,0.94249 1.331289,0.91595 1.331289,0.91595 1.218642,0.69686 1.218641,0.69686 0.219328,0.004 0.219328,0.004 v -1.02353 z m 2.339499,-3.50925 v -0.14622 h -0.146218 -0.146219 v 0.14622 0.14621 h 0.146219 0.146218 z m 26.904242,-16.37554 2.485718,-0.4369 2.120171,-0.62883 2.120171,-0.628836 v -0.249835 -0.249838 h -0.346328 -0.346324 l -1.272785,-0.616145 -1.272787,-0.616145 -0.697369,-1.026271 -0.697367,-1.026271 -0.165332,1.276869 -0.16533,1.27687 -0.09792,0.731093 -0.09792,0.731089 -0.381418,-0.877308 -0.381417,-0.877312 0.465911,-2.324646 0.465911,-2.324646 -0.102414,-0.102418 -0.102417,-0.102414 -1.067529,0.724443 -1.067528,0.724447 -0.890463,0.195576 -0.89046,0.195579 -1.073778,-0.199422 -1.07378,-0.199422 -1.092622,-0.611518 -1.092619,-0.611519 -0.797395,-1.150642 -0.797395,-1.150642 -0.100482,0.301448 -0.100484,0.30145 0.893858,2.53249 0.893858,2.532491 v 0.122917 0.122917 h -0.253265 -0.253265 l -0.799937,-2.19328 -0.799933,-2.193281 h -0.296876 -0.296874 l 0.202001,0.657984 0.202001,0.657985 0.160004,1.370911 0.160005,1.370911 -1.35143,0.635245 -1.351429,0.635247 v 0.39653 0.396531 l 0.494632,1.037248 0.494631,1.03726 1.040665,0.26644 1.040665,0.26644 0.584875,0.13449 0.584874,0.13449 2.3395,0.0335 2.339499,0.0335 z m -0.106652,-8.135529 0.916882,-0.638551 1.606949,-1.226228 1.606947,-1.226229 0.930152,-1.113271 0.930153,-1.113271 1.172347,-2.403084 1.172349,-2.403085 0.771099,-3.116208 0.771099,-3.116209 -0.685877,-0.55539 -0.685877,-0.55539 -3.022864,0.195433 -3.022864,0.195433 -0.196003,-0.510778 -0.196003,-0.510777 0.376039,-0.232407 0.376042,-0.232407 2.191541,-0.205363 2.191538,-0.205365 1.262177,0.889665 1.262177,0.889665 0.189634,-0.59748 0.189634,-0.597481 -0.196778,-1.360196 -0.196775,-1.360196 -0.294707,-1.200119 -0.29471,-1.200119 -1.015743,-0.484374 -1.01574,-0.484374 -0.426415,-1.020553 -0.426415,-1.020553 h -0.537312 -0.53731 L 62.763301,64.559556 61.850214,64.241253 61.233625,63.243588 60.617032,62.245923 H 60.07259 59.52815 l -0.480632,-0.657984 -0.480636,-0.657985 0.195933,0.955348 0.19593,0.955348 -1.018603,1.018605 -1.018606,1.018604 h -0.461981 -0.461984 l -1.123427,0.449507 -1.123425,0.449506 0.127248,0.867013 0.127251,0.867013 -0.458574,0.699873 -0.458574,0.699874 -1.997552,0.763307 -1.997552,0.763307 -0.647737,0.453694 -0.64774,0.453694 v 0.253418 0.253417 l 0.761483,0.904974 0.761487,0.904973 -0.18015,0.717776 -0.18015,0.717776 -0.62365,0.581017 -0.623649,0.581018 0.466391,0.962373 0.466394,0.962372 -0.570604,0.967658 -0.570604,0.967658 0.432427,2.073934 0.432428,2.073934 0.621417,1.19875 0.621418,1.198751 1.266699,1.911195 1.266698,1.911196 0.584778,0.529218 0.584782,0.529218 1.115996,0.407558 1.116,0.407559 1.023531,-0.162359 1.023531,-0.162361 z m -3.548816,-2.347287 -0.877312,-0.401741 -0.950422,-1.332067 -0.950421,-1.33207 v -0.423996 -0.424 l 1.742272,-0.369737 1.742269,-0.369734 0.597634,0.156284 0.597631,0.156284 -0.163882,-0.265164 -0.163879,-0.265165 h 0.322038 0.322037 l 0.45892,0.365547 0.458916,0.365546 0.867202,0.804203 0.867206,0.804203 h 0.26994 0.269943 v 0.185794 0.185795 l -0.657984,0.637256 -0.657984,0.637253 -0.2959,0.520992 -0.2959,0.520992 -1.312506,0.122634 -1.312506,0.122633 z m 2.991392,-1.538539 -0.176682,-0.176679 -0.383824,0.153594 -0.383824,0.153594 0.560506,0.02307 0.560503,0.0231 -0.176679,-0.176682 z m -2.260298,-0.408193 v -0.292437 l -0.511766,0.0045 -0.511765,0.0045 0.438656,0.28348 0.438656,0.28348 0.07311,0.0045 0.07311,0.0045 v -0.292438 z m 1.169749,-1.608406 V 85.348478 H 56.71683 56.570611 v 0.146218 0.146219 h 0.146219 0.146218 z m 2.056388,-2.328261 -0.344526,-0.415129 -0.417273,0.160124 -0.417276,0.160124 v -0.292437 -0.292438 l 0.430193,-0.165081 0.430193,-0.165081 0.412304,0.412305 0.412305,0.412305 0.181033,-0.181034 0.181033,-0.18103 V 81.91945 81.219836 l 0.292438,0.180737 0.292437,0.180735 v 0.703546 0.703546 l -0.554166,0.296581 -0.554169,0.296581 z m -4.440229,-1.410063 -0.305191,-0.570252 0.460241,-0.460242 0.460241,-0.460241 0.226291,0.241957 0.226291,0.241957 -0.365547,0.130553 -0.365546,0.130552 v 0.433993 0.433994 l 0.543588,-0.172529 0.543586,-0.172528 0.329082,0.396521 0.329083,0.396518 H 55.67286 54.784395 Z m 7.334076,-3.075951 -0.395338,-0.893134 -0.235157,0.145335 -0.235155,0.145334 0.168248,0.272231 0.168245,0.27223 h -0.584875 -0.584875 l -0.173906,-0.281386 -0.173904,-0.281387 1.160944,-0.768277 1.160944,-0.768277 1.323941,-0.02001 1.32394,-0.02001 -0.152217,-0.24629 -0.152213,-0.24629 h -1.135234 -1.135233 l -0.180735,0.292437 -0.180735,0.292437 h -0.275181 -0.275178 v -0.245496 -0.245497 l 0.744853,-0.339378 0.744856,-0.339378 h 0.731854 0.731856 l 0.86279,0.446166 0.86279,0.446166 v 0.275749 0.27575 L 65.489952,76.681108 65.051296,76.51278 v 0.355428 0.355427 l 0.731093,-0.183492 0.731094,-0.183493 v 0.288831 0.28883 l 0.41732,-0.16014 0.417317,-0.16014 -0.155428,0.594356 -0.155428,0.594356 -0.737726,0.483377 -0.737726,0.483377 -1.676596,0.152028 -1.676593,0.152029 z m 1.190951,0.380652 v -0.146218 h -0.146219 -0.146219 v 0.146218 0.146219 h 0.146219 0.146219 z m 1.462187,-0.432558 0.438656,-0.277384 -0.459902,-0.460034 -0.459904,-0.460035 -0.338032,0.741897 -0.338028,0.741896 0.359277,-0.0045 0.359277,-0.0045 0.438656,-0.277383 z M 58.91011,77.735712 v -0.30183 l 0.442496,-1.059039 0.442493,-1.059039 0.155071,0.155069 0.155068,0.155069 -0.376329,1.2058 -0.376329,1.205801 H 59.131345 58.91011 Z m -6.506732,-0.475609 -1.09664,-0.454865 v -0.26116 -0.26116 h -0.391714 -0.391717 l -0.387661,-0.804203 -0.387661,-0.804203 -0.0961,-0.511765 -0.0961,-0.511766 h 0.273344 0.273345 l 0.192508,0.311488 0.192509,0.311487 0.556924,-0.504007 0.55692,-0.504007 1.355544,0.02049 1.355544,0.02049 0.74804,0.74804 0.748041,0.748041 -0.179452,0.17945 -0.179448,0.17945 -0.601807,-0.601806 -0.601807,-0.601806 -0.752149,-0.188778 -0.752152,-0.188778 -0.161885,0.161883 -0.161881,0.161884 0.212055,0.343115 0.212058,0.343115 0.221244,-0.357981 0.221246,-0.357981 1.496823,1.442748 1.496827,1.442748 v 0.346198 0.346199 H 55.54708 54.815987 v -0.292437 -0.292438 h 0.28326 0.283258 l -0.184072,-0.479685 -0.184072,-0.479684 -0.3679,0.503133 -0.367901,0.503133 -0.681707,-0.09656 -0.68171,-0.09656 -0.288673,-0.657984 -0.288674,-0.657984 h -0.379598 -0.379602 l 0.332657,0.621574 0.332656,0.621575 0.847384,0.319851 0.847381,0.319851 v 0.228324 0.228324 l -0.219328,-0.01507 -0.219328,-0.01507 -1.09664,-0.454865 z m -0.511766,-3.024247 v -0.292437 h -0.292437 -0.292437 v 0.292437 0.292438 h 0.292437 0.292437 z m 3.801687,-1.368149 -0.438656,-0.163045 -1.690262,-0.842809 -1.690262,-0.842808 h -1.073272 -1.073271 l 0.277815,-0.241589 0.277816,-0.241588 1.210468,-0.379404 1.210469,-0.379404 2.29878,1.132758 2.29878,1.132758 v 0.438656 0.438656 l -0.584874,0.05543 -0.584875,0.05543 z m -8.578163,7.606814 -0.194959,-0.194958 v 0.389916 0.389917 l 0.194959,-0.194958 0.194956,-0.194959 z m 0.292437,-2.631937 -0.194959,-0.194958 v 0.389917 0.389916 l 0.194959,-0.194958 0.194957,-0.194958 z"
     id="path5406" /><g
     style="fill:#000000"
     id="g5454"
     transform="matrix(0.74672839,0,0,0.74672839,57.648375,14.881068)"><g
       id="Sum">
	<path
   d="m 17,31.972799 c 0,8.295599 6.7157,15.020602 15,15.020602 8.2843,0 15,-6.725003 15,-15.020602 0,-8.2957 -6.715702,-15.020698 -15,-15.020698 -8.284298,0 -15,6.724998 -15,15.020698 z m 28,0 c 0,7.178 -5.831799,13.017802 -13,13.017802 -7.168184,0 -13,-5.839802 -13,-13.017802 0,-7.178098 5.831816,-13.017898 13,-13.017898 7.168201,0 13,5.8398 13,13.017898 z"
   id="path5408" />
	<path
   d="m 32.742199,11.7701 c 0.5527,0 1,-0.4479 1,-1.0014 V 1.0014 c 0,-0.5535 -0.4473,-1.0014 -1,-1.0014 -0.552799,0 -0.999998,0.4479 -0.999998,1.0014 v 9.7673 c 0,0.5535 0.447199,1.0014 0.999998,1.0014 z"
   id="path5410" />
	<path
   d="m 48.644501,4.6588001 c -0.4805,-0.2797003 -1.091801,-0.1145 -1.3662,0.3646999 l -4.8838,8.457899 c -0.277302,0.479201 -0.113301,1.0914 0.364315,1.3681 0.158184,0.0919 0.330085,0.135001 0.5,0.135001 0.345684,0 0.681583,-0.179 0.866184,-0.4997 L 49.008816,6.0267997 C 49.286099,5.5476999 49.122101,4.9355001 48.644501,4.6588001 Z"
   id="path5412" />
	<path
   d="m 50.7617,23.0287 c 0.168998,0 0.340801,-0.043 0.499,-0.134001 l 8.458,-4.883598 C 60.1963,17.7353 60.361298,17.1222 60.0849,16.643 59.808598,16.1658 59.201199,15.9995 58.7187,16.276301 l -8.458,4.8836 c -0.477501,0.275799 -0.642502,0.889 -0.366199,1.368099 0.184597,0.320801 0.521499,0.5007 0.867199,0.5007 z"
   id="path5414" />
	<path
   d="m 11.7676,32.742199 c 0,-0.553398 -0.4473,-1.001299 -0.999999,-1.001299 H 1.0000008 c -0.5527,0 -1,0.447901 -1,1.001299 0,0.553501 0.4473,1.0014 1,1.0014 h 9.7676002 c 0.552699,0 0.999999,-0.447899 0.999999,-1.0014 z"
   id="path5416" />
	<path
   d="M 4.2822008,18.011101 12.7402,22.894699 c 0.1582,0.091 0.329101,0.134001 0.499,0.134001 0.345701,0 0.682701,-0.179899 0.8672,-0.5007 0.276415,-0.479099 0.111415,-1.0923 -0.3662,-1.368099 l -8.4579992,-4.8836 C 4.8008156,15.9995 4.1904006,16.163799 3.9160006,16.643 c -0.2763998,0.4792 -0.1113,1.0923 0.3662002,1.368101 z"
   id="path5418" />
	<path
   d="m 20.741199,14.9845 c 0.169901,0 0.341801,-0.0431 0.499001,-0.134 0.4785,-0.2777 0.642616,-0.8899 0.3662,-1.3681 L 16.7236,5.0244999 C 16.446301,4.5443001 15.834001,4.3800998 15.357401,4.6578002 c -0.4785,0.2776999 -0.642586,0.8898997 -0.3662,1.3680997 l 4.8828,8.4579001 c 0.1856,0.3217 0.521499,0.5007 0.867198,0.5007 z"
   id="path5420" />
	<path
   d="m 32.742199,52.231899 c -0.552799,0 -0.999998,0.447899 -0.999998,1.0014 V 62.9986 c 0,0.553501 0.447199,1.0014 0.999998,1.0014 0.5527,0 1,-0.447899 1,-1.0014 v -9.765301 c 0,-0.553501 -0.4473,-1.0014 -1,-1.0014 z"
   id="path5422" />
	<path
   d="m 22.5273,49.8937 c -0.4814,-0.279599 -1.090799,-0.114399 -1.3662,0.364799 L 16.2773,58.7164 c -0.2773,0.479199 -0.1133,1.091301 0.3643,1.368099 0.158216,0.0919 0.330101,0.134899 0.5,0.134899 0.345701,0 0.6816,-0.178897 0.866216,-0.499698 L 22.8916,51.261799 C 23.168899,50.7826 23.0049,50.170502 22.5273,49.8937 Z"
   id="path5424" />
	<path
   d="m 13.482401,42.392201 -8.4580003,4.883701 c -0.4775,0.275699 -0.6425853,0.888897 -0.3662,1.368099 0.1846147,0.320698 0.5215001,0.500698 0.8671999,0.500698 0.1689,0 0.3407998,-0.0431 0.4990001,-0.133999 l 8.4580003,-4.883701 c 0.4775,-0.2757 0.642599,-0.888901 0.366199,-1.368099 -0.2754,-0.478199 -0.884699,-0.644402 -1.366199,-0.366699 z"
   id="path5426" />
	<path
   d="m 63,31.7409 h -9.765602 c -0.552799,0 -1,0.447901 -1,1.001299 0,0.553501 0.447201,1.0014 1,1.0014 H 63 c 0.5527,0 1,-0.447899 1,-1.0014 C 64,32.188801 63.5527,31.7409 63,31.7409 Z"
   id="path5428" />
	<path
   d="m 58.975601,47.275902 -8.458,-4.883701 c -0.480503,-0.2767 -1.091785,-0.1115 -1.366203,0.366699 -0.276398,0.479198 -0.111397,1.092399 0.366203,1.368099 l 8.458,4.883701 c 0.158215,0.0909 0.329098,0.133999 0.498997,0.133999 0.345703,0 0.682602,-0.18 0.867218,-0.500698 0.276382,-0.479202 0.111282,-1.0924 -0.366215,-1.368099 z"
   id="path5430" />
	<path
   d="M 42.837898,50.258499 C 42.5625,49.779301 41.951199,49.614101 41.471699,49.8937 c -0.4776,0.276802 -0.641598,0.8889 -0.3643,1.368099 l 4.8838,8.457901 c 0.184617,0.320801 0.520501,0.499698 0.8662,0.499698 0.169899,0 0.341801,-0.043 0.5,-0.134899 0.477501,-0.276798 0.641602,-0.8889 0.3643,-1.368099 z"
   id="path5432" />
</g></g></svg>
